<?xml version="1.0" encoding="UTF-8" standalone="no"?>
<!-- Created with Inkscape (http://www.inkscape.org/) -->

<svg
   width="65mm"
   height="97mm"
   viewBox="0 0 65 97"
   version="1.1"
   id="svg5"
   inkscape:version="1.2.2 (b0a8486541, 2022-12-01)"
   sodipodi:docname="karte_back.svg"
   xml:space="preserve"
   xmlns:inkscape="http://www.inkscape.org/namespaces/inkscape"
   xmlns:sodipodi="http://sodipodi.sourceforge.net/DTD/sodipodi-0.dtd"
   xmlns="http://www.w3.org/2000/svg"
   xmlns:svg="http://www.w3.org/2000/svg"><sodipodi:namedview
     id="namedview7"
     pagecolor="#ffffff"
     bordercolor="#000000"
     borderopacity="0.25"
     inkscape:showpageshadow="2"
     inkscape:pageopacity="0.0"
     inkscape:pagecheckerboard="0"
     inkscape:deskcolor="#d1d1d1"
     inkscape:document-units="mm"
     showgrid="false"
     showguides="true"
     inkscape:zoom="1.9870739"
     inkscape:cx="110.21231"
     inkscape:cy="200.04289"
     inkscape:window-width="1912"
     inkscape:window-height="1130"
     inkscape:window-x="0"
     inkscape:window-y="30"
     inkscape:window-maximized="1"
     inkscape:current-layer="layer1"><sodipodi:guide
       position="3,55.909663"
       orientation="-1,0"
       id="guide132"
       inkscape:locked="false"
       inkscape:label=""
       inkscape:color="rgb(0,134,229)" /><sodipodi:guide
       position="62,37.908181"
       orientation="-1,0"
       id="guide184"
       inkscape:locked="false"
       inkscape:label=""
       inkscape:color="rgb(0,134,229)" /><sodipodi:guide
       position="23.480193,94"
       orientation="0,1"
       id="guide186"
       inkscape:locked="false"
       inkscape:label=""
       inkscape:color="rgb(0,134,229)" /><sodipodi:guide
       position="34.828953,3"
       orientation="0,1"
       id="guide188"
       inkscape:locked="false"
       inkscape:label=""
       inkscape:color="rgb(0,134,229)" /><sodipodi:guide
       position="7,33.081696"
       orientation="-1,0"
       id="guide190"
       inkscape:locked="false"
       inkscape:label=""
       inkscape:color="rgb(0,134,229)" /><sodipodi:guide
       position="65,30.733677"
       orientation="-1,0"
       id="guide192"
       inkscape:locked="false"
       inkscape:label=""
       inkscape:color="rgb(0,134,229)" /><sodipodi:guide
       position="58,24.897191"
       orientation="-1,0"
       id="guide194"
       inkscape:locked="false"
       inkscape:label=""
       inkscape:color="rgb(0,134,229)" /><sodipodi:guide
       position="35.73009,90"
       orientation="0,1"
       id="guide196"
       inkscape:locked="false"
       inkscape:label=""
       inkscape:color="rgb(0,134,229)" /><sodipodi:guide
       position="86.369139,7"
       orientation="0,1"
       id="guide198"
       inkscape:locked="false"
       inkscape:label=""
       inkscape:color="rgb(0,134,229)" /><sodipodi:guide
       position="-25.010774,49.5"
       orientation="0,1"
       id="guide4920"
       inkscape:locked="false"
       inkscape:label=""
       inkscape:color="rgb(0,134,229)" /><sodipodi:guide
       position="32.5,66.336106"
       orientation="-1,0"
       id="guide7826"
       inkscape:locked="false"
       inkscape:label=""
       inkscape:color="rgb(0,134,229)" /></sodipodi:namedview><defs
     id="defs2" /><g
     inkscape:label="Layer 1"
     inkscape:groupmode="layer"
     id="layer1"><rect
       style="fill:none;stroke:#000000;stroke-width:0.2;stroke-dasharray:none"
       id="rect252"
       width="59"
       height="91"
       x="3"
       y="3"
       ry="5" /><path
       style="display:none;fill:#000000;stroke-width:0.129169"
       d="m 76.888912,91.87542 c -0.14208,-0.0806 -0.30104,-0.20959 -0.35323,-0.2867 -0.0522,-0.0771 -0.0958,-9.474925 -0.0969,-20.884019 -0.002,-20.014439 0.006,-20.751405 0.23679,-20.959891 0.22055,-0.199599 1.28223,-0.213442 13.9179,-0.181479 l 13.679128,0.0346 0.73117,0.35906 c 0.40214,0.197483 0.93965,0.589832 1.19447,0.871887 0.25482,0.282055 0.48975,0.512827 0.52208,0.512827 0.0323,0 0.33993,-0.281161 0.68357,-0.624801 0.46274,-0.462743 0.83938,-0.697266 1.45208,-0.904179 0.8271,-0.279315 0.83034,-0.279378 14.29298,-0.279378 h 13.4657 l 0.20108,0.287078 c 0.17996,0.256925 0.20108,2.458969 0.20108,20.965515 0,20.63159 -7.4e-4,20.67908 -0.26337,20.96113 l -0.26337,0.2827 -29.67142,-0.004 c -21.875948,-0.003 -29.739298,-0.0424 -29.929758,-0.15042 z m 3.88465,-1.73001 c 0.88681,-0.667432 2.12168,-1.918751 2.12168,-2.149938 0,-0.213261 0.51255,-0.08407 0.69395,0.174912 0.28349,0.404731 0.0774,0.812069 -0.92346,1.824976 l -0.86149,0.87189 h 1.44968 1.44968 l 0.0184,-1.25939 c 0.0101,-0.692668 0.016,-1.404708 0.013,-1.582315 -0.003,-0.177606 -0.0112,-1.441842 -0.0184,-2.809413 -0.007,-1.367571 -0.0633,-2.486493 -0.12487,-2.486493 -0.0615,0 -0.26678,0.424723 -0.45611,0.943829 -0.70681,1.937968 -2.55322,4.067802 -4.91072,5.664528 -1.48883,1.008374 -1.62341,1.126264 -1.53846,1.347644 0.0518,0.13501 0.33377,0.18161 1.09885,0.18161 h 1.02916 z m 6.90092,-19.428437 V 50.566696 h -0.68934 -0.68934 l -0.0857,6.22131 c -0.0471,3.421722 -0.0857,8.184121 -0.0857,10.583109 0,4.220366 -0.008,4.364406 -0.25346,4.442241 -0.1394,0.04425 -0.37191,0.01706 -0.51668,-0.06042 -0.30017,-0.160652 -0.27894,0.62838 -0.26352,-9.792211 l 0.009,-5.849963 -1.1344,0.03738 -1.1344,0.03738 -0.0332,8.34733 -0.0332,8.347329 0.6121,0.50071 c 0.92716,0.758424 1.27586,1.190039 1.76114,2.179898 0.81134,1.654965 0.78347,1.361562 0.80981,8.525118 0.0133,3.623175 0.0296,6.631183 0.0361,6.684463 0.007,0.0533 0.38972,0.0969 0.8515,0.0969 h 0.83959 z m 2.8713,5.586536 0.035,-14.563743 0.3633,-0.689786 c 0.65409,-1.241922 1.54053,-1.991211 2.8355,-2.396787 0.21227,-0.06649 0.22557,-0.344118 0.19375,-4.046648 l -0.0342,-3.975265 -0.55014,-0.03978 c -0.4386,-0.03171 -0.56523,0.0076 -0.6245,0.193753 -0.31127,0.977624 -0.61199,1.380329 -2.21237,2.962694 l -1.71514,1.695816 V 73.155506 90.86725 h 0.83691 0.83691 z M 90.246652,58.53874 c -0.35262,-0.270735 -0.5055,-0.697051 -0.50499,-1.408254 7.3e-4,-1.217403 0.68453,-1.913726 1.87896,-1.913726 0.5108,0 0.66625,0.06566 1.03976,0.439173 0.66049,0.660492 0.57068,1.498354 -0.16062,1.498354 -0.185,0 -0.37255,-0.140116 -0.51869,-0.387506 -0.26744,-0.452747 -0.584,-0.493381 -0.95482,-0.122561 -0.30339,0.303384 -0.24694,0.705562 0.147,1.047445 0.30012,0.260464 0.31528,0.538516 0.0441,0.809664 -0.24033,0.240336 -0.68415,0.25744 -0.97073,0.03741 z m 3.32297,19.411667 c 0.0179,-12.811918 0.0189,-12.854436 0.29454,-13.545098 0.44011,-1.102551 1.00397,-1.810835 1.89263,-2.377381 l 0.8142,-0.519077 -0.0417,-4.986697 c -0.0229,-2.742682 -0.0483,-5.207852 -0.0565,-5.478154 l -0.0149,-0.491458 -0.61355,0.03937 -0.61355,0.03937 -0.0646,4.95898 c -0.058,4.451222 -0.0867,4.972923 -0.2806,5.095165 -0.30495,0.192255 -0.88192,-0.08797 -0.88192,-0.428326 0,-0.191908 -0.085,-0.261107 -0.32065,-0.261107 -0.50186,0 -1.40213,0.96121 -1.72848,1.845496 -0.27553,0.746542 -0.2759,0.766899 -0.2759,14.892322 V 90.87857 l 0.93647,-0.0379 0.93647,-0.038 z M 96.845442,89.89 c 0,-0.537494 -0.0602,-1.089767 -0.13381,-1.227277 -0.12815,-0.239446 -1.03058,-0.76262 -1.64226,-0.952075 l -0.29063,-0.09002 v 1.623309 1.623313 h 1.03335 1.03335 z m 1.80836,0.77895 c 0,-0.24479 -0.37572,-0.83504 -0.53153,-0.83504 -0.13228,0 -0.15666,0.81877 -0.0282,0.94723 0.16432,0.16432 0.55973,0.0851 0.55973,-0.11219 z m 4.387778,0.0368 c -0.005,-0.2057 -0.92219,-1.552899 -1.09399,-1.606924 -0.0804,-0.02527 -0.11297,0.30091 -0.0863,0.863884 l 0.0429,0.9045 h 0.57065 c 0.37252,0 0.56929,-0.0561 0.56672,-0.16146 z m 2.58731,-0.033 c 0,-0.36232 -1.19175,-2.613164 -1.84647,-3.48742 -1.36742,-1.825916 -3.30605,-3.467179 -5.257788,-4.451293 -1.11657,-0.562998 -2.56065,-1.09649 -3.26151,-1.204911 l -0.48438,-0.07493 v 0.891081 0.891079 l 0.54897,0.142388 c 2.17408,0.563903 4.13266,1.682029 6.136558,3.503272 1.28677,1.169482 2.13657,2.213664 2.68707,3.301694 0.33829,0.66862 0.35818,0.68354 0.9117,0.68354 0.41783,0 0.56585,-0.0509 0.56585,-0.1945 z m 3.67802,-0.64781 c 0.63781,-1.140492 1.53572,-2.192679 2.85684,-3.347682 1.94967,-1.704522 3.69209,-2.702533 5.5329,-3.169098 l 0.91367,-0.231576 0.0382,-0.854731 c 0.0379,-0.847971 0.0355,-0.854732 -0.30387,-0.854732 -0.99967,0 -3.98774,1.331192 -5.67608,2.528706 -1.07158,0.76006 -2.75286,2.518861 -3.47175,3.631848 -0.63694,0.986105 -1.50123,2.698575 -1.50123,2.974465 0,0.1091 0.19343,0.16511 0.57014,0.16511 0.56763,0 0.57221,-0.004 1.04118,-0.84231 z m 2.23733,-0.17001 c 0.0277,-0.686996 -0.003,-0.922575 -0.10977,-0.856291 -0.25076,0.154975 -1.15515,1.635541 -1.07664,1.762561 0.0407,0.0659 0.31571,0.10213 0.61112,0.0806 l 0.53711,-0.0391 z m 2.18573,0.2696 c 0.55703,-1.152631 1.95524,-2.462368 3.40168,-3.186462 0.65011,-0.325442 1.26329,-0.591714 1.36263,-0.591714 0.1362,0 0.18062,-0.206526 0.18062,-0.839595 0,-0.815865 -0.009,-0.839595 -0.33243,-0.839595 -0.56595,0 -2.19128,0.612274 -3.16277,1.191433 -1.17628,0.701253 -1.99445,1.595644 -2.25151,2.461278 -0.19639,0.661298 -0.26896,2.301225 -0.10892,2.461265 0.26418,0.26417 0.57348,0.0412 0.9107,-0.65661 z m 1.71572,0.22605 c 0,-0.61254 -0.12197,-0.65323 -0.42423,-0.14154 -0.30164,0.51063 -0.27892,0.65821 0.10131,0.65821 0.29063,0 0.32292,-0.0517 0.32292,-0.51667 z m 3.2009,-1.130229 c 0.0415,-1.809694 0.0528,-1.795429 -1.00033,-1.261772 -0.90097,0.456555 -1.03805,0.708711 -1.03805,1.909501 v 1.01004 l 1.00106,-0.0377 1.00105,-0.0377 z m 3.09827,-12.658525 -0.0345,-14.305406 -0.30895,-0.683753 c -0.30571,-0.676578 -1.09562,-1.491638 -1.56441,-1.614231 -0.17921,-0.04686 -0.27661,0.03447 -0.37325,0.311688 -0.1583,0.454107 -0.44113,0.583052 -0.86013,0.392141 l -0.31315,-0.142679 -0.0338,-4.944163 -0.0338,-4.944163 h -0.64585 -0.64584 l -0.0336,5.495509 -0.0336,5.495508 0.43871,0.158641 c 1.04058,0.376275 2.07262,1.72692 2.398,3.138266 0.0831,0.360707 0.13173,5.175911 0.13374,13.257247 l 0.003,12.690799 h 0.97096 0.97097 z m 2.87179,-3.351437 V 55.553567 l -0.33837,-0.488279 c -0.18611,-0.268553 -0.84703,-0.923299 -1.4687,-1.454991 -1.10878,-0.948286 -1.79485,-1.817067 -2.07931,-2.633079 -0.13156,-0.377408 -0.18898,-0.410522 -0.71173,-0.410522 h -0.56862 v 3.994205 3.994205 l 0.48438,0.159015 c 1.12432,0.369099 2.02998,1.217649 2.6026,2.438493 l 0.33598,0.716321 0.0344,14.499158 0.0345,14.499157 h 0.83742 0.83742 z m -2.36959,-14.742316 c -0.28942,-0.319802 -0.27003,-0.470799 0.10915,-0.849974 0.34979,-0.349797 0.39759,-0.599627 0.18921,-0.988997 -0.20394,-0.38105 -0.70743,-0.31368 -1.02881,0.137659 -0.48676,0.683591 -1.27397,0.414003 -1.10028,-0.376801 0.1337,-0.608723 0.86768,-1.173319 1.52457,-1.172737 0.94703,9.04e-4 1.89906,0.849958 1.90026,1.694853 0.002,1.353244 -0.94294,2.275524 -1.5941,1.555997 z m 5.28401,25.908444 c -0.007,-5.786634 0.0163,-6.578895 0.21668,-7.303623 0.39716,-1.436131 0.85756,-2.218068 1.93113,-3.279802 l 1.00374,-0.992668 0.008,-8.214272 c 0.004,-4.51785 -0.0271,-8.27074 -0.0697,-8.339753 -0.0427,-0.06901 -0.57025,-0.12548 -1.17243,-0.12548 h -1.09488 l 0.0142,7.703526 c 0.0125,6.772514 -0.01,7.727536 -0.18441,7.902183 -0.15781,0.157809 -0.26321,0.169242 -0.51263,0.0556 -0.25648,-0.116863 -0.3231,-0.257043 -0.36384,-0.765627 -0.0274,-0.342415 -0.0678,-5.039453 -0.0897,-10.437862 -0.0219,-5.398409 -0.0672,-9.859564 -0.10064,-9.913678 -0.0335,-0.05411 -0.34801,-0.09839 -0.69903,-0.09839 h -0.63822 V 70.716948 90.86722 h 0.88002 0.88001 l -0.008,-6.490708 z m 3.12118,5.486803 c -0.71663,-0.720855 -0.99802,-1.09598 -0.99802,-1.330435 0,-0.68271 0.7276,-0.876023 1.12419,-0.298683 0.37469,0.545466 1.33679,1.472208 2.15815,2.078848 l 0.76357,0.56395 1.04336,-0.0372 c 1.40766,-0.0502 1.40896,-0.228 0.008,-1.12978 -1.29949,-0.836623 -2.92936,-2.286651 -3.98875,-3.548628 -0.74209,-0.883997 -1.62546,-2.542335 -1.62546,-3.051454 0,-0.138149 -0.0792,-0.251181 -0.17593,-0.251181 -0.12524,0 -0.19803,0.269845 -0.25262,0.936472 -0.10645,1.300032 -0.11777,6.327591 -0.0152,6.736391 l 0.0842,0.33558 h 1.43611 1.43611 z m -30.0022,0.63487 c 0.11826,-0.37262 -0.12993,-2.244961 -0.35414,-2.671513 -0.333368,-0.634251 -1.387148,-1.564028 -2.481708,-2.189663 -1.04392,-0.596693 -2.64634,-1.176675 -2.94039,-1.064249 -0.10974,0.04196 -0.14595,0.309005 -0.11581,0.854146 l 0.0438,0.793102 0.94749,0.437765 c 1.73701,0.802548 3.02006,1.900792 3.88598,3.326252 0.473248,0.77905 0.867298,0.97871 1.014748,0.51416 z m 7.91494,-3.924203 c 2.04259,-2.837717 5.71538,-5.312207 9.14115,-6.158705 l 0.90418,-0.22342 v -0.765525 -0.765524 l -0.58631,0.02858 c -1.60882,0.07844 -4.83802,1.434048 -6.90001,2.896601 -1.17932,0.836481 -2.9405,2.524811 -3.78675,3.630112 -0.51444,0.671904 -0.84231,0.770285 -1.07621,0.322921 -0.26267,-0.502393 -1.87401,-2.339844 -2.52615,-2.880627 -2.61939,-2.172125 -5.897968,-3.779337 -8.200468,-4.019995 l -0.75568,-0.07898 v 0.783031 0.783031 l 0.61355,0.186993 c 0.33746,0.102847 0.96231,0.288008 1.38856,0.411469 1.05069,0.304321 2.89996,1.206847 4.032318,1.967952 2.19552,1.475698 4.12633,3.644153 5.29133,5.942589 l 0.60328,1.19022 0.55601,-1.107716 c 0.30581,-0.609247 0.89135,-1.573601 1.3012,-2.143009 z m -29.723768,1.579237 c 1.75619,-1.280331 3.39341,-3.109042 4.01605,-4.485784 0.47755,-1.055904 0.5656,-2.715073 0.18925,-3.565872 -0.30216,-0.683093 -0.49897,-0.762349 -0.61074,-0.245947 -0.58763,2.714991 -1.89279,4.856442 -3.81438,6.258482 l -0.89289,0.65148 v 1.017476 c 0,0.559612 0.0506,1.017476 0.1124,1.017476 0.0618,0 0.51196,-0.291288 1.00031,-0.647311 z m 57.013088,-0.372216 c 0,-0.696062 -0.0512,-1.039426 -0.16146,-1.082244 -0.0888,-0.03449 -0.51809,-0.331263 -0.95397,-0.659486 -1.77494,-1.336571 -3.29967,-3.821711 -3.71465,-6.054488 -0.0495,-0.26641 -0.13299,-0.484382 -0.18549,-0.484382 -0.27126,0 -0.58814,0.892866 -0.6397,1.80245 -0.1026,1.810015 0.748,3.497044 2.71139,5.377634 0.98412,0.942609 2.55553,2.120043 2.82943,2.120043 0.063,0 0.11445,-0.458787 0.11445,-1.019527 z M 79.138472,83.950502 c 1.04366,-1.098696 1.50816,-1.952256 2.0528,-3.772169 l 0.33818,-1.130015 0.0693,-12.593923 0.0694,-12.593924 0.35865,-0.610117 c 0.4555,-0.774875 1.27146,-1.270795 2.26697,-1.377808 l 0.73276,-0.07877 0.0394,-0.61355 0.0394,-0.61355 -1.00813,0.0029 c -1.49417,0.0042 -2.45258,0.509106 -3.20875,1.690416 -0.59492,0.929391 -0.59778,0.988571 -0.60371,12.504561 -0.006,11.658824 0.002,11.506702 -0.61864,11.506702 -0.63325,0 -0.62251,0.211206 -0.60118,-11.818913 0.0223,-12.605112 -0.0472,-11.689034 0.99155,-13.064811 0.28259,-0.374299 0.51381,-0.7121 0.51381,-0.75067 0,-0.03857 -0.63938,-0.07013 -1.42085,-0.07013 h -1.42085 v 17.313117 c 0,16.665142 0.009,17.308436 0.23371,17.188035 0.12855,-0.06879 0.65786,-0.571591 1.17625,-1.117325 z m 56.684018,-16.042962 -0.0328,-17.27628 -1.51773,-0.03639 c -0.89624,-0.02149 -1.51773,0.01377 -1.51773,0.08611 0,0.06738 0.0491,0.141879 0.10921,0.165561 0.21625,0.08525 1.05658,1.37612 1.24679,1.915238 0.16679,0.472732 0.19687,2.151008 0.21211,11.833845 0.014,8.910955 -0.0165,11.324257 -0.14515,11.479281 -0.19975,0.240677 -0.56811,0.254379 -0.75589,0.02812 -0.097,-0.116822 -0.15108,-3.577651 -0.17727,-11.334531 l -0.0377,-11.16636 -0.28791,-0.623819 c -0.73039,-1.582563 -1.77574,-2.298115 -3.48867,-2.38802 l -1.06724,-0.05601 v 0.66204 0.66204 h 0.58926 c 1.14016,0 2.36962,0.822163 2.75833,1.844552 0.0913,0.240133 0.14117,4.215529 0.15151,12.076678 0.008,6.445288 0.0622,12.163515 0.11944,12.707169 0.13841,1.315112 0.65377,2.953097 1.25365,3.984522 0.50145,0.862204 2.18156,2.712538 2.46298,2.712538 0.12332,0 0.15043,-3.752863 0.12478,-17.27628 z m -27.89453,14.929301 c 1.15131,-1.213352 2.58929,-2.367622 3.88228,-3.11632 1.63102,-0.94443 4.33877,-1.993578 5.98678,-2.319644 l 0.8133,-0.160917 0.005,-0.871887 c 0.005,-0.776747 -0.0221,-0.871887 -0.24405,-0.871887 -0.137,0 -0.52028,0.16686 -0.85173,0.3708 -0.33144,0.20394 -0.7241,0.409353 -0.87256,0.456474 -0.31671,0.10052 -0.68466,-0.20628 -0.68466,-0.570869 0,-0.352929 0.88924,-1.042153 1.82974,-1.418181 l 0.81821,-0.327135 v -4.393098 -4.393098 l -0.43046,-0.874005 C 117.74,63.4541 117.52696,63.259289 116.22929,62.563465 l -0.57261,-0.307045 0.0337,-3.584424 c 0.0186,-1.971434 -0.004,-3.584424 -0.0493,-3.584424 -0.0456,0 -0.22267,0.166006 -0.3934,0.368903 -0.17073,0.202897 -0.63198,0.590376 -1.025,0.861064 l -0.7146,0.492163 v 3.466078 3.466077 h 1.48544 c 2.17347,0 2.01388,-0.347774 1.97176,4.296799 l -0.0342,3.776229 -0.43534,0.140713 c -0.49001,0.158379 -0.59783,0.310833 -0.99673,1.409309 -0.20588,0.566955 -0.35293,0.78584 -0.54776,0.81535 -0.21735,0.03292 -0.29256,-0.0621 -0.40896,-0.516674 -0.26158,-1.021548 -0.38091,-1.289468 -0.7735,-1.736607 -0.21442,-0.2442 -0.38984,-0.500103 -0.38984,-0.568675 0,-0.06857 -0.14532,-0.124674 -0.32292,-0.124674 H 112.7331 V 73.9356 c 0,1.486085 -0.0353,2.793916 -0.0784,2.90629 -0.0926,0.24139 -0.70455,0.273869 -0.92911,0.04931 -0.0957,-0.09566 -0.155,-0.565471 -0.155,-1.2271 v -1.072098 h -1.08411 c -0.86941,0 -1.09964,0.04046 -1.16252,0.204317 -0.0431,0.112374 -0.0791,0.940667 -0.0799,1.840651 l -0.001,1.636333 -0.65313,0.645842 c -0.65573,0.648423 -1.41058,1.80392 -1.41058,2.159275 0,0.268518 -0.42739,0.623689 -0.61269,0.509163 -0.0851,-0.05259 -0.2435,-0.347272 -0.35202,-0.654853 -0.25019,-0.709109 -1.24089,-2.104707 -1.75288,-2.469275 l -0.39154,-0.278805 0.0871,-1.457464 c 0.0479,-0.801605 0.0489,-1.60995 0.002,-1.796323 -0.0834,-0.332379 -0.10601,-0.338861 -1.18053,-0.338861 h -1.09547 v 0.977255 c 0,0.53749 -0.0602,1.089685 -0.13371,1.2271 -0.14484,0.27063 -0.82175,0.351204 -0.96762,0.115178 -0.0458,-0.07407 -0.0797,-1.352834 -0.0755,-2.841705 0.007,-2.563456 -0.005,-2.707039 -0.2344,-2.707039 -0.475528,0 -1.149618,0.86501 -1.442658,1.851256 -0.3967,1.335128 -0.69168,1.400134 -1.07904,0.23779 -0.31973,-0.959449 -0.6535,-1.419017 -1.06483,-1.466187 l -0.36278,-0.0416 -0.0342,-3.840842 c -0.0408,-4.576726 -0.11292,-4.355016 1.42278,-4.37126 1.53062,-0.01619 1.96802,-0.0493 2.00211,-0.151555 0.0178,-0.05328 0.0323,-1.626507 0.0323,-3.496055 v -3.399179 l -0.48457,-0.273612 c -0.2664,-0.150488 -0.76437,-0.546664 -1.10657,-0.880394 l -0.62221,-0.606779 0.0271,3.616157 c 0.0149,1.988888 -0.008,3.67315 -0.0511,3.742805 -0.043,0.06966 -0.45345,0.311344 -0.91199,0.537084 -0.66668,0.328208 -0.92246,0.545726 -1.27668,1.085732 -0.73176,1.115543 -0.7409,1.187546 -0.7409,5.837208 v 4.283769 l 0.93647,0.365479 c 1.52308,0.594419 2.1186,1.170384 1.69458,1.638928 -0.29119,0.32176 -0.44207,0.305106 -1.33936,-0.147849 -0.42221,-0.213128 -0.88821,-0.387505 -1.03557,-0.387505 -0.24843,0 -0.26515,0.06344 -0.22973,0.871786 l 0.0382,0.871788 1.08306,0.2285 c 2.77711,0.585906 5.775048,1.986892 7.861148,3.673635 1.05965,0.8568 2.3442,2.108385 2.59068,2.524195 0.11581,0.195368 0.259,0.355213 0.31821,0.355213 0.0592,0 0.61339,-0.533008 1.23154,-1.184462 z m 21.20887,-2.561422 c 0.006,-0.362792 0.62011,-1.520004 1.07194,-2.020138 l 0.45048,-0.498647 0.0464,-1.646929 c 0.0256,-0.90581 0.008,-1.646914 -0.0394,-1.646898 -0.26568,9.6e-5 -1.15463,1.279148 -1.46025,2.101063 -0.47577,1.279478 -0.66927,3.3401 -0.38456,4.095433 0.0631,0.167399 0.086,0.167399 0.1919,0 0.0661,-0.104572 0.1217,-0.27732 0.12348,-0.383884 z M 84.766712,80.02787 c 0.23441,-1.704439 -0.37858,-3.79757 -1.47848,-5.048338 l -0.51114,-0.581258 -0.005,1.632834 -0.005,1.632833 0.5223,0.627615 c 0.53747,0.645836 1.02772,1.589766 1.02772,1.978774 0,0.23294 0.10889,0.392614 0.26774,0.392614 0.0525,0 0.13483,-0.285784 0.18287,-0.635074 z M 107.0452,78.863077 c 0.1975,-0.369034 0.17582,-0.395997 -0.31838,-0.395997 -0.46912,0 -0.58932,0.198601 -0.29708,0.49084 0.22633,0.226337 0.4631,0.189851 0.61546,-0.09484 z m 1.19599,-3.399163 0.0357,-1.969819 1.61461,-0.06458 1.6146,-0.06458 -0.0454,-1.366222 c -0.0565,-1.700446 0.01,-1.798405 1.21714,-1.798405 h 0.83037 v -0.391151 -0.39115 l -1.77606,0.03594 -1.77607,0.03594 -0.0646,1.162516 c -0.0355,0.639383 -0.11161,1.235173 -0.16909,1.323976 -0.15634,0.24156 -0.57247,0.194915 -0.86426,-0.09688 -0.21781,-0.217813 -0.25834,-0.430561 -0.25834,-1.356269 v -1.097932 h -1.93753 -1.93752 v 1.142497 c 0,0.979226 -0.037,1.175975 -0.25886,1.376763 -0.21389,0.193568 -0.31487,0.208747 -0.58126,0.08737 -0.35925,-0.163683 -0.36974,-0.207152 -0.37983,-1.573285 l -0.007,-0.968763 -1.77606,-0.03594 -1.776068,-0.03594 v 0.39115 0.391151 h 0.813758 c 0.4607,0 0.88101,0.06725 0.96876,0.155002 0.10227,0.102268 0.15501,0.651582 0.15501,1.614606 v 1.459603 h 1.60078 c 1.34056,0 1.61354,0.03322 1.67919,0.204317 0.0431,0.112374 0.0784,1.013324 0.0784,2.002111 v 1.797794 h 1.48207 1.48207 z m -1.88034,0.979527 c -0.0474,-0.04736 -0.0861,-0.476187 -0.0861,-0.952947 0,-0.984409 0.18054,-1.276656 0.63758,-1.032054 0.22956,0.122856 0.26659,0.265729 0.26659,1.02849 0,0.688592 -0.0455,0.903273 -0.20431,0.96422 -0.26714,0.10251 -0.50654,0.0995 -0.61375,-0.0077 z m 0.0569,-4.036008 c -0.13075,-0.08279 -0.17347,-0.370406 -0.15627,-1.052113 0.0275,-1.08878 0.0542,-1.15502 0.46537,-1.15502 0.393,0 0.45559,0.111348 0.54399,0.967845 0.10339,1.001819 -0.30081,1.589008 -0.85309,1.239288 z m -7.634758,-3.755599 c 0.0599,-1.975552 0.0827,-2.133191 0.31439,-2.177618 0.37295,-0.07151 0.58979,0.333955 0.58979,1.102819 0,0.523433 0.0459,0.685738 0.19375,0.685738 0.162298,0 0.193758,-0.272689 0.193758,-1.67919 v -1.67919 h -1.227098 -1.2271 v 2.978302 2.978301 l 0.54896,-0.03972 0.54897,-0.03972 z M 115.83323,67.87042 v -2.975721 l -1.19481,0.03714 -1.19481,0.03714 -0.0362,1.657126 c -0.0335,1.530006 -0.0186,1.653776 0.19375,1.613447 0.184,-0.03494 0.2429,-0.211332 0.29457,-0.882116 0.0609,-0.790997 0.0829,-0.838436 0.3875,-0.838436 h 0.32293 l 0.0354,2.163571 0.0354,2.163572 h 0.57813 0.57814 z m -13.82102,-4.954318 c 0,-5.772057 0.032,-5.503478 -0.65641,-5.503478 -0.24032,0 -0.24778,0.163215 -0.24778,5.425074 v 5.425075 h 0.4521 0.45209 z m 8.26678,0.373686 c 0,-2.735142 -0.0494,-4.972985 -0.10979,-4.972985 -0.27672,0 -1.23912,0.852017 -1.75695,1.555431 -0.97545,1.325064 -1.10414,1.845363 -1.10414,4.464238 0,1.313683 -0.0561,2.368974 -0.13371,2.51394 -0.19525,0.364818 -0.69721,0.319612 -0.8789,-0.07915 -0.0936,-0.2055 -0.1499,-1.098198 -0.1499,-2.378109 0,-2.234334 -0.16152,-3.058002 -0.81999,-4.181586 -0.37025,-0.631804 -1.68173,-1.894761 -1.96755,-1.894761 -0.15517,0 -0.18334,0.764151 -0.18334,4.972985 v 4.972985 h 3.55213 3.55214 z m -5.92152,3.641102 c -0.0883,-0.10641 -0.15207,-1.115132 -0.17153,-2.713665 -0.0272,-2.233612 -0.005,-2.570708 0.18531,-2.76058 0.20227,-0.202266 0.23329,-0.200896 0.47864,0.02115 0.24674,0.223293 0.26236,0.38851 0.26236,2.774946 0,2.53179 -0.0512,2.84752 -0.46211,2.84752 -0.0837,0 -0.21536,-0.07622 -0.29267,-0.169367 z m 4.13899,0.01436 c -0.11003,-0.110037 -0.155,-0.891119 -0.155,-2.692517 0,-2.307544 0.0217,-2.557173 0.23966,-2.754403 0.27452,-0.248443 0.65925,-0.158209 0.67524,0.158375 0.0429,0.849513 -0.0254,5.233655 -0.083,5.326855 -0.10284,0.166404 -0.49432,0.144248 -0.67688,-0.03831 z m 3.87254,-1.879401 c 0.0128,-1.758305 0.0334,-4.17238 0.0456,-5.36461 0.0123,-1.195568 -0.0306,-2.200385 -0.0957,-2.240597 -0.0649,-0.0401 -0.28884,-0.0021 -0.49768,0.08437 l -0.37971,0.157281 v 5.280236 5.280235 h 0.45209 0.45209 z m -4.6334,-6.258022 c 0.75215,-0.966115 1.81504,-1.669722 3.54344,-2.345665 0.84901,-0.33203 1.82536,-0.803983 2.16968,-1.048787 1.29055,-0.917547 2.12065,-2.376104 2.22538,-3.910212 l 0.0639,-0.936471 h -0.66688 c -0.52279,0 -0.68175,0.04884 -0.73571,0.226045 -0.16679,0.547762 -0.69651,1.560628 -1.01274,1.936449 -0.39727,0.472137 -1.41176,1.078037 -2.30484,1.376564 -1.73061,0.578481 -2.74013,1.421616 -3.54797,2.963178 -0.40255,0.768186 -0.54503,0.931888 -0.84065,0.965892 -0.25229,0.02902 -0.37921,-0.0274 -0.43584,-0.193753 -0.63974,-1.879409 -1.76673,-3.039194 -3.63089,-3.736553 -1.7546,-0.656374 -2.720878,-1.492264 -3.277518,-2.835249 l -0.2912,-0.702573 h -0.63619 -0.63619 l 0.0505,0.936471 c 0.0613,1.136371 0.48721,2.139637 1.26771,2.986377 0.73821,0.800868 1.532778,1.283127 3.251758,1.973649 0.80551,0.323577 1.73006,0.782988 2.05455,1.020914 0.72378,0.530696 1.63798,1.500631 2.05479,2.180068 l 0.31151,0.507777 0.26563,-0.366033 c 0.1461,-0.20132 0.48707,-0.650459 0.75771,-0.998088 z m -0.31152,-3.729232 c 0.84348,-0.958245 1.6917,-1.52787 3.04866,-2.047336 0.56834,-0.217571 1.2205,-0.510425 1.44924,-0.65079 0.49678,-0.304844 1.19871,-1.234612 1.19871,-1.587792 0,-0.239189 -0.0833,-0.249443 -1.6469,-0.202785 -1.36878,0.04084 -1.75596,0.09874 -2.29273,0.342818 -1.05558,0.479985 -1.58787,1.105531 -1.92162,2.25826 -0.28674,0.990373 -0.96839,0.972212 -1.13954,-0.03036 -0.17048,-0.998644 -0.79497,-1.754248 -1.82723,-2.210865 -0.48855,-0.216108 -0.98187,-0.291071 -2.29113,-0.348147 -1.80295,-0.0786 -1.82647,-0.06917 -1.48314,0.594766 0.33883,0.655216 1.15007,1.246563 2.39204,1.743651 0.66501,0.266166 1.45269,0.651527 1.7504,0.85636 0.57185,0.39344 1.87226,1.746087 1.87226,1.947464 0,0.257511 0.2297,0.08601 0.89098,-0.665244 z M 84.197522,54.958419 h 0.89362 v -0.985197 -0.985198 l -0.66969,0.06435 c -0.57867,0.0556 -0.73666,0.136151 -1.16251,0.592691 -0.61234,0.656462 -0.70376,1.600671 -0.1338,1.381957 0.0983,-0.03773 0.5809,-0.0686 1.07238,-0.0686 z M 130.7094,54.50633 c -0.0931,-0.843273 -0.86901,-1.484138 -1.79787,-1.484954 l -0.54896,-4.84e-4 v 0.973611 0.97361 l 1.19481,-0.03714 1.19481,-0.03714 z M 89.880522,52.642304 c 0.9242,-0.612654 1.77645,-1.668151 1.59022,-1.969474 -0.0361,-0.05838 -0.60696,-0.106138 -1.26864,-0.106138 h -1.20304 l -0.0635,0.660662 c -0.0848,0.882435 0.0265,1.793538 0.21902,1.793538 0.0851,0 0.4118,-0.170364 0.72592,-0.378588 z m 34.709418,-0.925106 -0.0378,-1.085922 -1.32398,-0.03681 c -1.51315,-0.04207 -1.55791,-0.002 -0.944,0.845508 0.64494,0.890315 1.93918,1.731329 2.24124,1.456382 0.0563,-0.05128 0.0854,-0.581901 0.0646,-1.179158 z M 76.650622,48.134613 c -0.19709,-0.217782 -0.21377,-1.891056 -0.21377,-21.441962 0,-21.03352 0.002,-21.207842 0.25834,-21.464083 0.25684,-0.256841 0.43056,-0.258338 30.031658,-0.258338 29.60111,0 29.77483,0.0015 30.03167,0.258338 0.25624,0.256241 0.25834,0.430563 0.25834,21.486526 0,20.503013 -0.008,21.23559 -0.23936,21.444804 -0.22136,0.200331 -1.27731,0.213974 -14.04707,0.18148 l -13.80771,-0.03513 -0.60602,-0.309764 c -0.33331,-0.170371 -0.82327,-0.532242 -1.08878,-0.804155 l -0.48276,-0.49439 -0.6683,0.632052 c -1.16982,1.106363 -0.18598,1.040841 -15.628658,1.040841 -12.99572,0 -13.59306,-0.01023 -13.79758,-0.236216 z m 3.79045,-0.881817 c 0,-0.04657 -0.14891,-0.279924 -0.33093,-0.518551 -0.182,-0.238627 -0.47517,-0.748947 -0.65147,-1.134046 l -0.32055,-0.700179 -0.0454,-11.601237 c -0.0274,-7.00231 0.002,-11.690847 0.0748,-11.827283 0.14012,-0.26357 0.81887,-0.308647 0.97246,-0.06459 0.0559,0.0888 0.1029,5.305594 0.10449,11.592868 l 0.003,11.431408 0.29701,0.645842 c 0.38787,0.843433 1.09557,1.570837 1.89886,1.951704 0.5056,0.239727 0.86321,0.306494 1.6469,0.307482 l 1.00105,0.0012 v -0.710427 -0.710426 l -0.48438,-0.0031 c -1.31443,-0.0086 -2.2829,-0.528061 -2.73833,-1.468848 -0.26112,-0.539414 -0.26485,-0.71448 -0.2659,-12.486675 -7.3e-4,-7.106453 -0.0534,-12.410171 -0.13046,-13.102102 -0.2648,-2.379017 -1.06048,-4.197803 -2.50046,-5.715701 -0.48863,-0.515059 -0.96821,-0.936472 -1.06574,-0.936472 -0.14946,0 -0.17733,2.747869 -0.17733,17.480794 0,9.614439 0.0387,17.519548 0.0861,17.566909 0.11157,0.111573 2.62642,0.112941 2.62642,0.0014 z m 7.23344,-20.517682 V 6.13275 h -0.8396 -0.83959 v 6.401388 c 0,4.054046 -0.0527,6.742016 -0.14363,7.33031 -0.28311,1.831121 -0.95179,3.118401 -2.29075,4.410002 l -0.79673,0.768541 0.0332,8.208666 0.0332,8.208663 h 1.09793 1.09794 l 0.0201,-7.657551 c 0.0152,-5.800971 0.0582,-7.703478 0.17728,-7.846983 0.19246,-0.231894 0.56585,-0.24604 0.73833,-0.02797 0.0803,0.101489 0.15733,4.062938 0.20746,10.66533 0.0439,5.777129 0.11321,10.557976 0.15408,10.624105 0.0409,0.06613 0.3615,0.120235 0.71252,0.120235 h 0.63822 z m 3.87505,20.546191 c 0,-0.683417 -2.15987,-2.853514 -2.58101,-2.593233 -0.14429,0.08917 -0.18564,2.423075 -0.0454,2.563296 0.0934,0.09341 2.62642,0.122279 2.62642,0.02994 z m 2.4238,-3.915754 c 0.032,-3.660051 0.0198,-3.907425 -0.19375,-3.908607 -0.44313,-0.0025 -1.52657,-0.621493 -2.06241,-1.178395 -0.29853,-0.310264 -0.67635,-0.854746 -0.83959,-1.20996 l -0.29681,-0.645842 -0.0349,-15.151097 -0.0349,-15.151093 -0.80471,0.03839 -0.8047,0.03839 v 18.335082 18.33508 l 1.29168,0.999205 c 1.44489,1.117717 1.97164,1.724364 2.40487,2.769628 0.29531,0.712481 0.29641,0.713387 0.81836,0.675004 l 0.52265,-0.03843 z m -3.379,-0.797186 c -0.64492,-0.425165 -0.89254,-0.954317 -0.82541,-1.76387 0.0965,-1.163159 0.80981,-1.809584 1.40376,-1.272065 0.30205,0.273356 0.31408,0.484883 0.0405,0.711954 -0.52598,0.436528 -0.47139,1.170718 0.10055,1.352245 0.22029,0.06992 0.35873,-0.0051 0.6397,-0.346464 0.34862,-0.423589 0.36862,-0.430196 0.72007,-0.237864 0.55074,0.301392 0.54922,0.802804 -0.004,1.35615 -0.38861,0.388602 -0.53136,0.44802 -1.0746,0.447283 -0.39853,-5.13e-4 -0.76253,-0.09055 -1.00041,-0.247369 z m 5.92819,-0.650814 V 36.56221 l -0.45209,-0.28661 c -1.25907,-0.798206 -1.96045,-1.643549 -2.28243,-2.750898 -0.18608,-0.639979 -0.21045,-2.175374 -0.22266,-14.023017 l -0.0137,-13.304351 h -0.90418 -0.90418 v 14.983541 14.983539 l 0.37282,0.67277 c 0.6026,1.087411 1.88763,1.778825 1.88763,1.015646 0,-0.317443 0.29867,-0.719652 0.53439,-0.719652 0.0706,0 0.24086,0.06017 0.37828,0.133712 0.24025,0.128578 0.24984,0.321225 0.24984,5.016042 0,2.685281 0.0414,4.923758 0.0921,4.974395 0.0506,0.05064 0.3558,0.07486 0.67814,0.05382 l 0.58606,-0.03825 z m 2.74823,4.838672 c 0.528,-1.367987 1.469308,-2.182882 3.355518,-2.904881 0.5864,-0.224461 1.36095,-0.641108 1.72121,-0.925881 0.6927,-0.547545 1.5972,-1.813325 1.73096,-2.422346 0.0902,-0.410509 0.55767,-0.69 0.86576,-0.517582 0.11046,0.06182 0.27727,0.302679 0.37068,0.535251 0.29364,0.731057 1.10665,1.836972 1.71985,2.339441 0.57615,0.472111 1.33809,0.859741 2.55903,1.301879 1.17022,0.423774 2.23807,1.489442 2.62505,2.619693 0.15956,0.466046 0.19936,0.493146 0.78012,0.531205 0.33658,0.02206 0.66594,-0.01386 0.7319,-0.07982 0.18056,-0.180556 -0.12598,-1.656538 -0.51468,-2.478264 -0.64731,-1.368396 -1.9913,-2.475272 -3.85613,-3.175799 -1.95903,-0.735913 -3.23044,-1.682171 -4.20521,-3.129751 l -0.46188,-0.685917 -0.29592,0.492164 c -0.51631,0.858727 -1.43287,1.858522 -2.11257,2.304429 -0.36171,0.237295 -1.20985,0.649717 -1.88476,0.916493 -0.6749,0.266776 -1.51773,0.653514 -1.87294,0.859419 -1.187138,0.688141 -2.213758,1.869589 -2.566618,2.953714 -0.22886,0.703126 -0.3732,1.842062 -0.24917,1.966095 0.0513,0.05133 0.37842,0.07618 0.72686,0.05523 0.60792,-0.03656 0.64159,-0.05898 0.83294,-0.554768 z m 4.538698,0.442399 c 0.35612,-0.07637 0.83852,-0.26683 1.072,-0.423236 0.59699,-0.399906 1.26412,-1.435375 1.26412,-1.962062 0,-0.468226 0.30545,-0.869483 0.61538,-0.808383 0.25028,0.04934 0.38428,0.302233 0.48086,0.907491 0.10947,0.685978 0.79694,1.521745 1.61444,1.962694 0.64437,0.347569 0.83008,0.381959 2.36112,0.437244 0.94918,0.03428 1.71361,0.0081 1.78272,-0.06099 0.17741,-0.177408 -0.56713,-1.285072 -1.07156,-1.594194 -0.23237,-0.14239 -0.95254,-0.465021 -1.6004,-0.716956 -1.30585,-0.507814 -2.558,-1.431181 -3.19907,-2.359087 -0.20504,-0.296764 -0.40847,-0.539467 -0.45209,-0.539339 -0.0436,1.26e-4 -0.24105,0.256251 -0.43874,0.569163 -0.6757,1.069576 -1.94974,1.980429 -3.45105,2.467274 -0.39073,0.126708 -0.95928,0.400292 -1.26345,0.607964 -0.51313,0.35035 -1.19074,1.215068 -1.19074,1.519539 0,0.177725 2.63976,0.172316 3.47646,-0.0071 z m 14.47795,-4.884705 c 0.0591,-4.540825 0.0836,-4.970996 0.29063,-5.101493 0.3127,-0.197144 0.64492,0.03242 0.79272,0.547763 0.0847,0.295425 0.19323,0.406334 0.39752,0.406334 0.44091,0 1.29198,-0.821652 1.63314,-1.576694 l 0.30895,-0.683754 V 21.051706 6.197334 h -0.90417 -0.90419 l -0.0646,13.562687 -0.0646,13.562687 -0.37195,0.805276 c -0.37662,0.815405 -1.14775,1.637417 -2.03403,2.168232 l -0.43573,0.260971 -0.0338,5.228519 c -0.0186,2.875685 -0.005,5.304461 0.031,5.397279 0.0439,0.114441 0.26267,0.156072 0.67963,0.129339 l 0.61486,-0.03942 z m 2.61633,4.248553 c 0.20619,-0.561024 0.46423,-0.900575 1.22701,-1.614606 0.53125,-0.497298 1.30811,-1.229303 1.72636,-1.626678 l 0.76045,-0.7225 -0.0327,-18.200678 -0.0327,-18.200678 h -0.77501 -0.77501 l -0.0677,14.983541 c -0.0514,11.385645 -0.10587,15.092096 -0.2267,15.435629 -0.45215,1.285536 -1.60201,2.455453 -2.68019,2.726943 l -0.57756,0.145431 v 3.931381 3.93138 l 0.59635,-0.03937 c 0.59548,-0.03931 0.59674,-0.04042 0.85746,-0.749796 z m -0.0263,-4.101098 c -0.52103,-0.480805 -0.62416,-0.964798 -0.2791,-1.309854 0.30846,-0.308466 0.58312,-0.247033 0.98515,0.220359 0.33399,0.388285 0.78976,0.294946 0.97805,-0.200298 0.1037,-0.272758 0.0649,-0.419263 -0.21978,-0.830077 -0.33458,-0.482801 -0.33823,-0.507128 -0.11331,-0.755663 0.33616,-0.371454 0.76267,-0.31929 1.14965,0.140615 0.63174,0.750786 0.3578,2.326614 -0.49486,2.846561 -0.62073,0.378523 -1.52943,0.327944 -2.0058,-0.111643 z m 3.73924,3.51984 c 0,-0.877081 -0.0488,-1.356268 -0.13819,-1.356268 -0.14025,0 -1.00104,0.579893 -1.48134,0.997956 -0.41218,0.358766 -1.11552,1.444487 -1.02775,1.586497 0.0437,0.07077 0.65376,0.128084 1.36322,0.128084 h 1.28406 z m 2.61096,-4.294851 c 0.0152,-3.108115 0.0297,-7.86545 0.0323,-10.571856 0.004,-3.975544 0.0388,-4.961785 0.18198,-5.134445 0.21422,-0.25824 0.57804,-0.277148 0.77464,-0.04026 0.10142,0.122195 0.1538,2.440986 0.17728,7.846983 l 0.0333,7.673531 h 1.09793 1.09793 l 0.0332,-8.171278 0.0332,-8.17128 -0.88972,-0.839316 c -0.59131,-0.557811 -1.04529,-1.13537 -1.35356,-1.722016 -0.90645,-1.724969 -0.89787,-1.642756 -0.97918,-9.384 l -0.0733,-6.975096 -0.8073,-0.03845 -0.80731,-0.03846 v 20.608529 20.608531 h 0.71043 0.71043 z m 3.40705,5.505538 c 0.73944,-0.186194 1.75816,-1.089545 2.22362,-1.971799 l 0.34807,-0.659741 0.0302,-11.495992 0.0302,-11.495991 0.27246,-0.224171 c 0.20596,-0.169457 0.33258,-0.191992 0.5188,-0.09233 0.21903,0.117223 0.24841,0.299588 0.26506,1.645022 0.0576,4.655566 -0.0636,21.950778 -0.15605,22.273182 -0.14553,0.507433 -0.6746,1.398039 -1.0118,1.703197 -0.14944,0.13525 -0.27172,0.296929 -0.27172,0.359287 0,0.06236 0.65391,0.09694 1.45314,0.07686 l 1.45315,-0.03652 0.0328,-17.4954 c 0.0197,-10.507955 -0.0147,-17.542794 -0.0859,-17.614075 -0.0721,-0.07212 -0.5188,0.27985 -1.1387,0.897254 -1.57204,1.565742 -2.32286,3.230417 -2.61379,5.795163 -0.08,0.705505 -0.1334,5.834179 -0.13576,13.046013 -0.004,11.27934 -0.016,11.910229 -0.24272,12.409308 -0.44116,0.971317 -1.54066,1.605468 -2.78358,1.605468 h -0.45948 v 0.710426 0.710427 h 0.84699 c 0.46583,0 1.10715,-0.06551 1.42513,-0.145582 z M 85.091152,43.720764 v -1.033347 h -1.16251 -1.16252 v 0.458504 c 0,1.001453 0.63256,1.593926 1.71148,1.603019 l 0.61355,0.0052 z m 44.738758,0.855487 c 0.45441,-0.189865 0.80786,-0.766689 0.88036,-1.436745 l 0.0419,-0.387505 -1.19481,-0.03714 -1.1948,-0.03714 v 1.038194 1.038195 h 0.52082 c 0.28645,0 0.71238,-0.08004 0.9465,-0.177861 z m -30.304178,-3.040198 0.41979,-0.171662 V 38.08627 34.808145 l -0.93647,-0.0031 c -1.19296,-0.0039 -1.84948,-0.157847 -2.24064,-0.525321 l -0.31043,-0.291635 v -3.891287 c 0,-4.036601 0.0212,-4.201293 0.53953,-4.201293 0.27815,0 0.55147,-0.398155 0.95201,-1.386808 0.39621,-0.977974 0.75371,-1.077437 0.96378,-0.268137 0.0795,0.306357 0.19184,0.731391 0.24959,0.944519 0.10957,0.404303 1.030808,1.485437 1.265748,1.485437 0.15697,0 0.27668,-1.585357 0.28167,-3.730305 0.004,-1.804982 0.0445,-1.953107 0.53106,-1.953107 0.51584,0 0.64168,0.303289 0.64168,1.546558 v 1.046869 l 1.13023,-0.03732 1.13022,-0.03732 0.0646,-2.270597 0.0646,-2.270595 0.62539,-0.695127 c 0.63322,-0.703825 1.26225,-1.806743 1.43295,-2.512495 0.0514,-0.212416 0.15952,-0.427062 0.24031,-0.476994 0.18867,-0.116603 0.47844,0.122344 0.47857,0.394641 2.6e-4,0.433642 0.7604,1.789882 1.46541,2.61442 l 0.73035,0.854169 0.002,1.922953 c 0.003,2.659265 -0.0744,2.504209 1.24041,2.504209 h 1.08287 V 22.47257 c 0,-0.925707 0.0405,-1.138456 0.25834,-1.356268 0.30192,-0.301928 0.39163,-0.314628 0.68433,-0.09688 0.18925,0.14079 0.22135,0.508521 0.25074,2.872314 0.0306,2.465322 0.0542,2.714795 0.26012,2.754376 0.12968,0.02492 0.26306,-0.05716 0.31212,-0.192068 0.0471,-0.129576 0.25821,-0.415753 0.46908,-0.63595 0.35629,-0.372049 0.59003,-0.894446 0.78891,-1.763213 0.0522,-0.227864 0.16574,-0.355214 0.3168,-0.355214 0.17209,0 0.33292,0.248417 0.59758,0.922963 0.41316,1.053077 0.70292,1.402069 1.16413,1.402069 h 0.32292 v 3.9376 3.9376 l -0.36614,0.40979 c -0.35938,0.402212 -0.39162,0.410922 -1.74378,0.471058 l -1.37762,0.06127 v 3.207467 3.207466 l 0.77532,0.526516 c 0.42643,0.289582 0.86906,0.669566 0.98362,0.844407 0.11456,0.174841 0.25882,0.317893 0.32056,0.317893 0.0618,0 0.12772,-1.612648 0.14661,-3.58366 l 0.0343,-3.583659 0.70176,-0.354441 c 0.91857,-0.46395 1.36102,-0.902769 1.78911,-1.774432 l 0.35084,-0.714363 V 28.291025 23.64685 l -0.50146,-0.104296 c -0.73276,-0.152401 -1.90765,-0.817628 -2.4809,-1.404681 -0.40839,-0.418236 -0.47413,-0.552308 -0.36004,-0.734327 0.23052,-0.367781 0.6289,-0.325978 1.36189,0.142908 0.71684,0.458555 1.77756,0.881375 1.94822,0.776587 0.0533,-0.03272 0.0969,-0.485778 0.0969,-1.006805 0,-0.997971 -0.0651,-1.104128 -0.67736,-1.104128 -0.47846,0 -2.96922,-0.913707 -4.29562,-1.575802 -2.41791,-1.206936 -4.83719,-3.050525 -6.28312,-4.787986 -0.36849,-0.442782 -0.71613,-0.805058 -0.77254,-0.805058 -0.0564,0 -0.25127,0.203438 -0.43303,0.452088 -0.59526,0.814358 -2.43674,2.607833 -3.46612,3.375753 -1.87923,1.401908 -3.992658,2.436318 -6.418348,3.141442 l -1.48543,0.431803 -0.038,0.999646 -0.038,0.999646 0.42555,-0.07039 c 0.23406,-0.03871 0.91413,-0.345907 1.51126,-0.682652 1.16024,-0.654292 1.49766,-0.664698 1.49766,-0.04618 0,0.424799 -1.65072,1.599177 -2.66799,1.898088 l -0.75461,0.221734 -0.0202,1.808358 c -0.0581,5.191771 -7.3e-4,7.054773 0.23824,7.719033 0.31739,0.882626 1.09256,1.729483 1.91671,2.093965 0.37047,0.163836 0.71364,0.362718 0.76262,0.441961 0.049,0.07924 0.0837,1.723333 0.0772,3.653536 l -0.0118,3.50946 0.682,-0.641418 c 0.37511,-0.35278 0.87092,-0.718667 1.10181,-0.813081 z m 2.455618,-6.431388 0.0337,-5.303434 -0.29692,-0.05676 c -0.62801,-0.12005 -0.6101,-0.282282 -0.6101,5.526894 v 5.479266 l 0.4198,-0.171267 0.4198,-0.171267 z m 10.36435,0.155566 v -5.489659 h -0.45208 -0.45209 v 5.280091 c 0,5.555973 -0.01,5.46045 0.58126,5.60576 0.14208,0.03492 0.27287,0.07024 0.29063,0.07848 0.0178,0.0082 0.0323,-2.455363 0.0323,-5.474675 z m -7.7118,3.367123 c 0.34077,-0.353588 0.80577,-1.023337 1.03335,-1.488332 0.41191,-0.841625 0.41407,-0.856587 0.47836,-3.312638 0.0651,-2.486124 0.14688,-2.893296 0.58126,-2.893296 0.43387,0 0.51618,0.408014 0.58368,2.893285 0.0646,2.377957 0.0802,2.494278 0.43185,3.215587 0.40164,0.823831 1.59529,2.194448 2.1699,2.491587 l 0.3667,0.18963 v -4.964249 -4.964247 l -1.19481,-0.08461 c -0.65714,-0.04654 -2.27013,-0.06649 -3.58442,-0.04435 -2.17928,0.03672 -2.38867,0.06016 -2.37885,0.266312 0.006,0.124324 0.0205,2.40972 0.0323,5.078656 l 0.0215,4.852613 0.4198,-0.29653 c 0.23088,-0.163091 0.6986,-0.58583 1.03937,-0.939418 z m -0.32694,-1.976557 c -0.17417,-0.195542 -0.1962,-0.601856 -0.15453,-2.850341 0.0267,-1.442261 0.0827,-2.677435 0.12434,-2.74483 0.10593,-0.1714 0.4952,-0.152828 0.68049,0.03246 0.11003,0.110027 0.15501,0.890565 0.15501,2.690022 0,2.487989 -0.006,2.540267 -0.30109,2.817876 -0.28653,0.269178 -0.31091,0.271828 -0.50422,0.05481 z m 4.16823,-0.284143 c -0.0787,-0.147002 -0.13372,-1.257042 -0.13372,-2.69672 0,-2.604867 0.0594,-2.85838 0.62784,-2.677977 0.23729,0.07531 0.25577,0.235747 0.30262,2.626333 0.0275,1.400366 0.002,2.64784 -0.0573,2.772165 -0.14299,0.301473 -0.57274,0.287639 -0.73942,-0.0238 z m -8.42924,-4.690847 c -0.0223,-1.143718 -0.0848,-1.828987 -0.165008,-1.809844 -0.071,0.01694 -0.14697,0.363688 -0.16874,0.770543 -0.0217,0.406854 -0.10153,0.814404 -0.17727,0.905664 -0.17569,0.211693 -0.57626,0.214207 -0.712,0.0045 -0.0575,-0.08881 -0.10451,-1.120538 -0.10451,-2.292741 V 27.12265 h -0.58125 -0.58126 l -0.0302,2.4542 c -0.0166,1.34981 0.004,2.788424 0.045,3.196919 l 0.0751,0.742719 h 1.21796 1.217968 z m 15.78729,-1.388561 v -3.229211 h -0.57827 -0.57828 l -0.0353,2.29108 c -0.0323,2.099721 -0.055,2.294865 -0.27107,2.336382 -0.37645,0.07232 -0.5952,-0.359185 -0.59969,-1.18297 -0.003,-0.543933 -0.049,-0.738562 -0.16557,-0.69983 -0.11672,0.03878 -0.17139,0.560775 -0.1973,1.883707 l -0.0358,1.830053 h 1.23064 1.23065 z m -12.271,-2.799243 c 0,-0.740763 0.054,-1.05051 0.21378,-1.2271 0.27475,-0.303604 0.46497,-0.298337 0.75386,0.02087 0.18652,0.206105 0.22757,0.449449 0.20698,1.2271 l -0.0257,0.970011 h 2.00889 2.0089 l 0.004,-1.001055 c 0.005,-1.331265 0.3335,-1.772131 0.92219,-1.239373 0.1906,0.172492 0.23621,0.409447 0.23621,1.2271 v 1.013328 h 1.80836 1.80836 v -0.381847 -0.381846 l -0.93647,-0.03795 -0.93647,-0.03795 -0.0646,-1.420853 -0.0646,-1.420853 -1.47757,-0.03675 c -0.81773,-0.02034 -1.55319,-0.09951 -1.6469,-0.177276 -0.12577,-0.104378 -0.16932,-0.634856 -0.16932,-2.062236 v -1.921711 h -1.48216 -1.48216 l -0.0356,2.034403 -0.0356,2.034403 -1.6469,0.03615 -1.64689,0.03615 v 1.481579 1.481578 h -0.96877 -0.968758 v 0.387505 0.387505 h 1.808358 1.80836 z m 2.76672,0.170767 c -0.0368,-0.09585 -0.0495,-0.569323 -0.0282,-1.052156 0.0426,-0.96726 0.27695,-1.30766 0.67366,-0.978419 0.15498,0.128623 0.20458,0.416491 0.20458,1.187318 v 1.017532 h -0.39156 c -0.21536,0 -0.42166,-0.07842 -0.45844,-0.174275 z m 0.10082,-4.114117 c -0.0879,-0.08791 -0.155,-0.508964 -0.155,-0.972817 0,-0.63799 0.0465,-0.835646 0.21131,-0.898902 0.40952,-0.157146 0.62624,0.141882 0.66735,0.920765 0.0502,0.952176 -0.28366,1.390955 -0.72366,0.950954 z M 83.343272,22.853971 c 0.98108,-1.286267 1.58627,-3.45441 1.45935,-5.228274 -0.0961,-1.343008 -0.24268,-1.395509 -0.55444,-0.198583 -0.21866,0.839483 -0.67714,1.686341 -1.15709,2.137225 -0.31565,0.296538 -0.32497,0.354659 -0.32497,2.026552 0,0.946692 0.0512,1.721259 0.11384,1.721259 0.0626,0 0.2711,-0.206182 0.46331,-0.458179 z m 47.344348,-1.214356 c 0,-1.631616 -0.008,-1.681388 -0.34195,-2.034403 -0.37659,-0.398518 -1.20692,-2.081351 -1.21005,-2.45239 -0.003,-0.304484 -0.20295,-0.619183 -0.29718,-0.46672 -0.0402,0.06506 -0.11292,0.557591 -0.16157,1.094512 -0.10969,1.210424 0.0918,2.442172 0.59868,3.659728 0.36752,0.882831 1.05032,1.871808 1.2923,1.871808 0.0674,0 0.11977,-0.731176 0.11977,-1.672535 z m -22.99199,-2.313113 c 0,-0.06083 -0.21363,-0.390383 -0.47474,-0.732349 l -0.47475,-0.621756 -0.55594,0.635474 c -0.30578,0.349509 -0.55715,0.679067 -0.55861,0.732349 -0.001,0.05328 0.46235,0.09688 1.0307,0.09688 0.56834,0 1.03334,-0.04977 1.03334,-0.110594 z M 96.948062,18.582147 c 3.146858,-1.080156 6.284908,-3.282126 8.357958,-5.864783 1.22235,-1.522841 1.29567,-1.593815 1.51787,-1.469167 0.1136,0.06373 0.50734,0.513323 0.87498,0.999097 1.49261,1.972239 3.75388,3.847013 6.29672,5.220466 1.25873,0.679877 3.3147,1.411004 4.16269,1.480302 l 0.45208,0.03694 v -0.956067 -0.956069 l -1.12846,-0.299563 c -4.36474,-1.158672 -8.58284,-4.693343 -10.29963,-8.630856 l -0.41974,-0.962695 -0.64305,1.252562 c -2.08727,4.065738 -5.84959,7.188128 -10.101268,8.383147 l -1.23942,0.348363 v 0.960438 0.960438 l 0.58696,-0.08045 c 0.32282,-0.04425 1.03486,-0.234196 1.58231,-0.422107 z m -13.85213,-1.361818 c 0.32153,-0.968059 0.26157,-2.264585 -0.1533,-3.314737 -0.61519,-1.557186 -2.3539,-3.564783 -4.07504,-4.705239 -1.1724,-0.77685 -1.1391,-0.786582 -1.1391,0.332893 v 0.973936 l 0.61355,0.485338 c 1.58991,1.257663 2.57969,2.399811 3.24938,3.749578 0.37976,0.765419 0.9163,2.609909 0.9163,3.150026 0,0.464626 0.33956,0.07681 0.58821,-0.671795 z m 47.971168,0.07676 c 0.19159,-1.100176 0.63988,-2.323509 1.18634,-3.237408 0.56322,-0.941923 2.15579,-2.642345 2.96714,-3.168077 l 0.63371,-0.410638 V 9.469373 c 0,-0.638546 -0.0515,-1.011594 -0.13957,-1.011594 -0.29224,0 -1.64705,1.007921 -2.69004,2.001285 -2.00623,1.910777 -2.95355,3.814154 -2.81897,5.66392 0.0615,0.844954 0.42713,2.017928 0.63005,2.021115 0.046,7.69e-4 0.15009,-0.380433 0.23134,-0.84701 z M 96.153682,15.55077 c 2.98557,-0.909048 5.923798,-3.124287 7.800138,-5.880823 0.8383,-1.231538 1.80422,-3.051562 1.80422,-3.399563 0,-0.07611 -0.24882,-0.137634 -0.55662,-0.137634 h -0.55662 l -0.59959,1.00798 c -1.0271,1.726667 -3.25751,3.990681 -5.085548,5.162164 -0.86405,0.55372 -2.50721,1.255638 -3.43822,1.468717 l -0.74271,0.169987 v 0.939394 c 0,1.099703 -0.0143,1.092761 1.37495,0.669778 z m 22.521208,-0.691527 c 0,-0.457585 -0.0589,-0.868387 -0.13095,-0.912899 -0.072,-0.04451 -0.5408,-0.194508 -1.04174,-0.333326 -1.83466,-0.508409 -3.6323,-1.620276 -5.80087,-3.58792 -1.00774,-0.914382 -2.42028,-2.655904 -2.81655,-3.47255 -0.16897,-0.34822 -0.27671,-0.419798 -0.63187,-0.419798 -0.59128,0 -0.5678,0.314556 0.12678,1.69851 1.09433,2.180489 3.08585,4.495818 4.90653,5.704315 1.78295,1.183459 3.98526,2.13632 4.96887,2.14986 l 0.4198,0.0058 z m -33.872528,-4.837974 -0.0342,-3.823935 -1.45314,-0.0365 c -0.79924,-0.0201 -1.45315,0.0048 -1.45315,0.05531 0,0.05051 0.44224,0.54628 0.98276,1.10171 0.6713,0.689828 0.95785,1.074772 0.90417,1.214648 -0.0432,0.112623 -0.0786,0.256098 -0.0786,0.318829 0,0.06273 -0.1153,0.175762 -0.25621,0.251177 -0.22286,0.119272 -0.39518,1.54e-4 -1.32398,-0.915169 -0.58727,-0.578757 -1.36368,-1.277801 -1.72535,-1.553425 -0.63143,-0.481216 -0.69691,-0.501142 -1.64689,-0.501142 h -0.98932 v 0.516677 c 0,0.28417 0.0543,0.516674 0.1207,0.516674 0.27144,0 2.49924,1.608614 3.42449,2.472699 1.55884,1.455781 2.55829,2.914008 3.04161,4.437812 0.0901,0.28417 0.19736,0.574217 0.23829,0.644547 0.19757,0.339564 0.27992,-1.216146 0.24877,-4.69989 z m 44.529598,3.576097 c 0.16522,-0.472462 0.54623,-1.226354 0.84668,-1.675323 0.65066,-0.972274 2.74221,-3.062657 3.78929,-3.787181 1.64116,-1.135597 1.82178,-1.296332 1.82178,-1.621177 0,-0.30526 -0.0351,-0.317673 -1.00215,-0.354093 -0.92899,-0.035 -1.04214,-0.01007 -1.55002,0.341655 -0.54876,0.380013 -2.02953,1.778957 -2.45184,2.316347 -0.24494,0.311686 -0.73066,0.37686 -0.97649,0.131029 -0.32924,-0.329246 -0.13883,-0.695466 0.91064,-1.751412 l 1.06564,-1.072213 -1.55002,0.03618 -1.55003,0.03618 -0.0407,2.454201 c -0.0492,2.967393 0.0813,5.906687 0.25962,5.847247 0.07,-0.02332 0.26238,-0.428959 0.42759,-0.901417 z M 96.456332,12.24464 c 1.11725,-0.414427 2.55474,-1.324606 3.20337,-2.028285 0.663328,-0.719628 0.931608,-1.586177 0.931608,-3.009115 0,-1.028264 -0.0125,-1.074476 -0.29063,-1.074183 -0.22211,2.34e-4 -0.380888,0.17303 -0.673418,0.732847 -0.76928,1.472184 -2.37508,2.84663 -4.14756,3.550027 l -0.76556,0.303806 0.0453,0.903427 c 0.0249,0.496884 0.0721,0.947233 0.10479,1.000775 0.0753,0.123084 0.5295,0.01487 1.59214,-0.379299 z m 22.191608,-0.713023 -0.0376,-0.898649 -0.70231,-0.246889 c -1.6293,-0.572749 -3.2507,-1.927756 -4.07891,-3.408724 -0.38533,-0.689033 -0.53461,-0.850867 -0.75576,-0.819323 -0.26074,0.03719 -0.27532,0.108903 -0.27059,1.330987 0.004,1.069768 0.0532,1.383482 0.28578,1.825996 0.60079,1.143308 2.815,2.634218 4.55303,3.065733 1.00397,0.249261 1.05074,0.209798 1.0064,-0.849131 z M 95.908232,8.891435 c 0.64483,-0.36994 0.87291,-0.765679 0.9781,-1.69709 0.11665,-1.032846 0.0872,-1.061595 -1.08807,-1.061595 -0.56074,0 -1.02071,0.0436 -1.02215,0.09688 -0.0104,0.385458 -0.0178,2.959993 -0.009,3.044163 0.016,0.148377 0.49645,-0.01263 1.14089,-0.382356 z m 22.738468,-1.176371 -0.0364,-1.51773 -1.00105,-0.03772 -1.00105,-0.03772 v 0.956774 c 0,0.774954 0.0513,1.022008 0.26998,1.300008 0.31852,0.404937 1.09355,0.840347 1.51018,0.848417 0.29248,0.0057 0.29445,-0.0059 0.25834,-1.512021 z M 102.50006,7.37402 c 0.8245,-1.254067 0.82472,-1.24127 -0.022,-1.24127 h -0.72425 V 7.1661 c 0,0.56834 0.0458,1.033347 0.10178,1.033347 0.056,0 0.34597,-0.371442 0.64445,-0.825427 z m 9.07056,-0.272505 V 6.13275 h -0.71042 c -0.39074,0 -0.71018,0.0436 -0.70987,0.09688 0.001,0.201495 1.17489,1.830368 1.32342,1.836593 0.0533,0.0022 0.0969,-0.431885 0.0969,-0.964706 z m 3.87506,-0.387507 c 0,-0.533894 -0.0263,-0.581258 -0.32292,-0.581258 -0.38635,0 -0.41856,0.250323 -0.10132,0.787373 0.30978,0.524417 0.42424,0.468807 0.42424,-0.206115 z M 98.397162,6.645278 c 0.17841,-0.430728 0.11571,-0.585231 -0.1899,-0.467958 -0.21063,0.08083 -0.28839,0.859607 -0.0858,0.859607 0.0624,0 0.18649,-0.176241 0.27572,-0.391649 z"
       id="path1617"
       inkscape:label="traced" /><path
       id="path1720"
       style="display:inline;fill:#8ebbcf;stroke-width:0.114992;fill-opacity:1"
       d="M 32.5,7 C 7.5800992,7 7.4337421,7.0014121 7.2175193,7.2432421 7.0017174,7.4844686 7,7.6483352 7,27.449373 c 0,18.4053 0.014185,19.980678 0.1801071,20.185699 0.1721768,0.212744 0.675086,0.222324 11.6156299,0.222324 13.000529,0 12.172157,0.06176 13.156979,-0.979781 l 0.562513,-0.59497 0.406323,0.465079 c 0.223522,0.25598 0.636041,0.597068 0.91664,0.757456 l 0.510301,0.291405 11.624326,0.03308 c 10.750318,0.03059 11.638967,0.01784 11.82532,-0.170756 C 57.992912,47.461955 58,46.772395 58,27.470779 58,7.6486129 57.998232,7.4844686 57.782481,7.2432421 57.566258,7.0014535 57.419909,7 32.5,7 Z m 16.03914,1.0824273 0.679531,0.036489 0.679968,0.035999 0.06135,6.5665677 c 0.06845,7.287637 0.0613,7.210178 0.824406,8.834071 0.25952,0.55227 0.641572,1.09584 1.139371,1.620965 l 0.749144,0.790538 -0.02784,7.692292 -0.02785,7.692291 h -0.924461 -0.924461 l -0.02785,-7.223806 c -0.01977,-5.089228 -0.06384,-7.272232 -0.149219,-7.387266 -0.16551,-0.223008 -0.471786,-0.205164 -0.652129,0.03795 -0.120537,0.162543 -0.149766,1.091116 -0.153134,4.833709 -0.0022,2.547822 -0.01461,7.026507 -0.0274,9.952499 l -0.02306,5.319707 H 49.137322 48.53914 V 27.483427 Z m -29.69077,4.867e-4 0.02958,14.263237 0.02915,14.263238 0.25015,0.608105 c 0.137425,0.3344 0.455184,0.846777 0.706504,1.13886 0.451102,0.52427 1.363204,1.107318 1.736257,1.109671 0.179779,0.0011 0.190075,0.233696 0.163135,3.679282 l -0.02871,3.678308 -0.439829,0.03649 c -0.439408,0.03613 -0.440502,0.03539 -0.689103,-0.635349 C 20.240786,45.24074 19.797202,44.669423 18.58081,43.6172 L 17.493652,42.676335 V 25.415868 8.1549136 l 0.677359,-0.035999 z m 21.970072,9.414e-4 0.843113,0.03551 0.842674,0.03551 0.03045,1.4288049 c 0.0304,1.4178687 0.02871,1.4288197 -0.217519,1.4234537 -0.350743,-0.0076 -1.00304,-0.417599 -1.271189,-0.798807 C 40.861874,9.946616 40.818442,9.7143629 40.818442,8.9848175 Z m 12.777192,0.00292 -0.897059,1.0094552 c -0.883504,0.9940724 -1.043718,1.3387434 -0.766545,1.6486964 0.206954,0.231426 0.61603,0.170342 0.822234,-0.123081 0.355517,-0.5059 1.601863,-1.8231643 2.063832,-2.1809094 0.427563,-0.3311157 0.523055,-0.3545152 1.305133,-0.321566 0.814119,0.034286 0.843542,0.045865 0.843542,0.3332413 0,0.3058106 -0.151897,0.4575331 -1.533521,1.5265886 -0.881492,0.6820695 -2.642399,2.6496555 -3.190162,3.5649585 -0.252936,0.422661 -0.573945,1.132405 -0.713037,1.577182 -0.139083,0.444774 -0.300846,0.826962 -0.359776,0.848915 -0.150121,0.05596 -0.259815,-2.711056 -0.218395,-5.504571 l 0.03393,-2.3108018 1.305124,-0.034051 z m -45.5084669,0.00734 h 0.8331112 c 0.79974,0 0.8548985,0.018875 1.3864727,0.4718895 0.304475,0.2594738 0.958212,0.917528 1.45261,1.4623731 0.781917,0.861688 0.926961,0.973846 1.114578,0.861563 0.118626,-0.07099 0.215347,-0.177376 0.215347,-0.236431 0,-0.05905 0.03019,-0.194137 0.06656,-0.300161 0.04519,-0.131693 -0.196186,-0.4938453 -0.761317,-1.1432518 -0.455041,-0.5228836 -0.827454,-0.989634 -0.827454,-1.0371843 0,-0.04755 0.550491,-0.070972 1.223338,-0.05205 l 1.223337,0.034051 0.02872,3.5999841 c 0.02622,3.27961 -0.04293,4.744243 -0.209261,4.424576 -0.03446,-0.06621 -0.124696,-0.339128 -0.200547,-0.606646 -0.406894,-1.434515 -1.248348,-2.80745 -2.56067,-4.177928 -0.778929,-0.813452 -2.6545134,-2.3278282 -2.8830274,-2.3278282 -0.055899,0 -0.1017975,-0.2189651 -0.1017975,-0.4864841 z m 6.9598099,0 h 0.706941 0.706505 V 27.489278 46.88444 h -0.537274 c -0.295509,0 -0.565493,-0.05061 -0.599925,-0.112864 -0.03441,-0.06227 -0.09268,-4.563036 -0.129638,-10.001647 -0.0422,-6.215519 -0.106857,-9.945011 -0.174458,-10.040553 -0.145204,-0.205292 -0.459646,-0.192036 -0.62167,0.02628 -0.100249,0.135096 -0.136423,1.926209 -0.14922,7.387266 l -0.01697,7.208726 h -0.924462 -0.924032 l -0.02784,-7.727318 -0.02828,-7.727806 0.670835,-0.723402 c 1.127214,-1.215918 1.690207,-2.427834 1.928545,-4.151658 0.07655,-0.553822 0.120942,-3.084287 0.120942,-6.900782 z m 8.252751,0 c 0.989411,0 1.013968,0.027404 0.915765,0.9997258 -0.08855,0.8768339 -0.280246,1.2493518 -0.823101,1.5976148 h -4.38e-4 c -0.542527,0.348061 -0.947107,0.499681 -0.960577,0.359998 -0.0074,-0.07924 -9.26e-4,-2.5030081 0.0078,-2.8658792 0.0012,-0.050158 0.38845,-0.091458 0.860514,-0.091458 z m 5.013425,0 h 0.609927 c 0.712818,0 0.712388,-0.01205 0.01828,1.1685357 -0.251277,0.4273828 -0.495357,0.7774019 -0.542501,0.7774019 -0.04713,0 -0.0857,-0.4379313 -0.0857,-0.9729693 z m 2.434065,0 h 0.468536 c 0.259124,0 0.468544,0.058245 0.468544,0.1298913 0,0.3276098 -0.813007,2.0407203 -1.518737,3.2000953 -1.579612,2.595013 -4.053538,4.680412 -6.566965,5.536193 -1.169543,0.398197 -1.157209,0.40478 -1.157209,-0.630484 v -0.884429 l 0.625155,-0.160054 c 0.783778,-0.200593 2.166926,-0.861314 2.894334,-1.382588 1.53895,-1.102839 3.417017,-3.234003 4.28169,-4.8594936 z m 3.037457,0 c 0.298995,0 0.389814,0.067696 0.532063,0.3955115 0.333603,0.7687935 1.522602,2.4078871 2.370976,3.2686901 1.825628,1.852347 3.338826,2.899529 4.883349,3.378147 0.421721,0.130684 0.816434,0.271881 0.877048,0.313783 0.06066,0.0419 0.110502,0.428359 0.110502,0.859131 v 0.783241 l -0.35369,-0.0054 C 41.376863,17.074508 39.522982,16.177592 38.021991,15.06348 36.489237,13.925796 34.812534,11.745899 33.891263,9.6931776 33.306525,8.3903184 33.286902,8.0941035 33.784675,8.0941035 Z m 2.194792,0 h 0.598182 v 0.9121582 c 0,0.5015994 -0.03648,0.9103376 -0.08135,0.9082665 -0.125041,-0.00584 -1.113306,-1.5392779 -1.114148,-1.7289653 -2.61e-4,-0.050158 0.268367,-0.091458 0.597315,-0.091458 z m 3.588664,0 c 0.249712,0 0.271904,0.044688 0.271904,0.5472951 0,0.6353739 -0.09638,0.6877951 -0.357176,0.1941074 -0.267071,-0.5055815 -0.23998,-0.7414025 0.08527,-0.7414025 z m -12.478315,4.867e-4 c 0.234146,-2.758e-4 0.24493,0.043389 0.24493,1.0114011 0,1.3395588 -0.225955,2.1553378 -0.784385,2.8327988 -0.546054,0.662447 -1.756259,1.519309 -2.696825,1.909451 -0.894592,0.371073 -1.276972,0.472952 -1.340364,0.35708 -0.02752,-0.0504 -0.06736,-0.474552 -0.08832,-0.94232 l -0.03784,-0.850375 0.644291,-0.286053 c 1.492177,-0.662181 2.844024,-1.956228 3.491649,-3.3421487 0.246268,-0.5270135 0.37988,-0.6896139 0.566864,-0.6898342 z m -1.607486,0.00678 c 0.116345,0.01334 0.117868,0.1711785 0.0052,0.4752956 -0.07512,0.2027861 -0.179779,0.3687548 -0.23231,0.3687548 -0.170553,0 -0.105098,-0.7329298 0.07222,-0.8090235 0.06432,-0.027602 0.116092,-0.039473 0.154868,-0.03503 z m 12.427854,0.014592 c 0.15321,0.018141 0.285188,0.2059342 0.569037,0.77351 0.697236,1.3941899 2.062149,2.6696639 3.433788,3.2088519 l 0.59122,0.232539 0.03175,0.845997 c 0.03733,0.99688 -0.0023,1.033949 -0.847456,0.799294 -1.463175,-0.40623 -3.327377,-1.809998 -3.833157,-2.886312 -0.195799,-0.416585 -0.23721,-0.711666 -0.240578,-1.71875 -0.004,-1.1504749 0.0085,-1.2181732 0.227958,-1.253184 0.02327,-0.00367 0.04554,-0.00452 0.06743,-0.00198 z M 19.885952,8.154891 h 0.761317 0.760897 l 0.01174,12.525029 c 0.01028,11.153417 0.03084,12.598763 0.187498,13.201241 0.271062,1.042463 0.861196,1.838123 1.921146,2.589557 l 0.380663,0.269999 v 5.041438 5.041438 l -0.493337,0.036 c -0.271365,0.01981 -0.528174,-0.0029 -0.570772,-0.05059 -0.04268,-0.04767 -0.07744,-2.154965 -0.07744,-4.682899 0,-4.419718 -0.0083,-4.600774 -0.210557,-4.721817 -0.115689,-0.06923 -0.259015,-0.126 -0.31845,-0.126 -0.198443,0 -0.449839,0.378344 -0.449839,0.677186 0,0.71846 -1.081905,0.06775 -1.589209,-0.955941 L 19.885952,36.366146 V 22.26053 Z m 23.705444,0 h 0.761326 0.761326 V 22.138887 36.122881 L 44.853889,36.7665 c -0.2872,0.7108 -1.003545,1.484264 -1.374729,1.484264 -0.171983,0 -0.263678,-0.104262 -0.334984,-0.382376 -0.124426,-0.485146 -0.404109,-0.701266 -0.667358,-0.515674 -0.174289,0.12285 -0.194738,0.527824 -0.244492,4.802575 l -0.05438,4.668304 -0.5177,0.03746 c -0.351021,0.02516 -0.535127,-0.01438 -0.572085,-0.122107 -0.03031,-0.08738 -0.04176,-2.373662 -0.0261,-5.080843 l 0.02828,-4.92225 0.366739,-0.245675 c 0.746122,-0.499711 1.3957,-1.273663 1.71276,-2.041289 l 0.312793,-0.757943 0.05438,-12.767783 z m 2.60982,0 h 0.652566 0.652566 l 0.0274,17.134469 0.02741,17.133981 -0.639947,0.680106 c -0.352108,0.37409 -1.00624,1.063294 -1.453477,1.531453 -0.642152,0.672191 -0.859209,0.992114 -1.032791,1.520263 -0.21949,0.667809 -0.220424,0.668883 -0.721734,0.705889 l -0.502042,0.03697 V 43.196874 39.4957 l 0.485946,-0.136701 c 0.907675,-0.255582 1.875921,-1.35697 2.256567,-2.567179 0.101722,-0.323403 0.147275,-3.812799 0.190546,-14.53129 z m -13.671195,0.9248069 0.353252,0.9063206 c 1.445293,3.7067905 4.996335,7.0344845 8.670827,8.1252635 l 0.950129,0.28216 v 0.899997 0.899996 l -0.380663,-0.03503 c -0.713887,-0.06524 -2.444596,-0.753252 -3.504259,-1.393291 -2.140711,-1.292974 -4.04443,-3.057792 -5.300996,-4.914466 -0.3095,-0.457309 -0.640889,-0.880865 -0.736524,-0.94086 -0.187061,-0.117345 -0.249106,-0.05053 -1.278152,1.383075 -1.745214,2.431323 -4.386737,4.504248 -7.035938,5.521111 -0.460875,0.176901 -1.060337,0.355802 -1.332106,0.397459 l -0.494204,0.0759 V 19.382958 18.47907 l 1.04323,-0.32789 c 3.579312,-1.124996 6.746592,-4.064736 8.503769,-7.892238 z M 56.90369,10.28326 c 0.07414,0 0.117465,0.350921 0.117465,0.952051 v 0.952537 l -0.533359,0.386267 c -0.683042,0.494927 -2.023861,2.095907 -2.498012,2.982637 -0.460042,0.860348 -0.837573,2.012115 -0.998865,3.047825 -0.0684,0.439238 -0.156173,0.798072 -0.194899,0.797348 -0.170829,-0.003 -0.478537,-1.107197 -0.530311,-1.902641 -0.113297,-1.741377 0.684195,-3.533542 2.373156,-5.332355 0.878049,-0.935157 2.018801,-1.883669 2.264825,-1.883669 z M 8.2463962,10.465206 c 0.130589,0.01496 0.3682287,0.196689 0.800043,0.516647 1.4489558,1.073652 2.9128378,2.964008 3.4307398,4.429949 0.349262,0.988618 0.399454,2.208977 0.128771,3.120311 -0.209328,0.70474 -0.49508,1.069831 -0.49508,0.63243 0,-0.508468 -0.451623,-2.24504 -0.771327,-2.965609 C 10.775759,14.928258 9.9424793,13.853458 8.6040007,12.669489 L 8.0876049,12.212194 v -0.916536 c 0,-0.592807 -0.00912,-0.84966 0.1587913,-0.83043 z M 56.907176,13.76357 c 0.0062,0.0011 0.01099,0.0036 0.01479,0.0078 0.05994,0.0671 0.08924,6.690079 0.07265,16.582309 l -0.02785,16.46993 -1.223338,0.03454 c -0.672838,0.0189 -1.223338,-0.01378 -1.223338,-0.07249 0,-0.05871 0.103027,-0.210782 0.228834,-0.338107 0.283875,-0.287277 0.729293,-1.125753 0.851809,-1.603453 0.07783,-0.303512 0.17988,-16.585197 0.131389,-20.967966 -0.01402,-1.266596 -0.03878,-1.438125 -0.223177,-1.54848 -0.156771,-0.09382 -0.263392,-0.07293 -0.436781,0.08659 l -0.229272,0.211134 -0.02567,10.822333 -0.02523,10.822333 -0.29322,0.62124 c -0.391767,0.830385 -1.249519,1.680897 -1.871989,1.856425 -0.267812,0.07533 -0.807418,0.136702 -1.199412,0.136702 h -0.713029 v -0.668429 -0.668916 h 0.38675 c 1.046362,0 1.971741,-0.597106 2.343135,-1.511508 0.190866,-0.469835 0.201103,-1.063536 0.204471,-11.681951 0.002,-6.789248 0.04707,-11.61762 0.114417,-12.281786 0.244922,-2.414461 0.877014,-3.98144 2.200449,-5.455436 0.489245,-0.5449 0.85036,-0.870219 0.943605,-0.852807 z M 8.2368243,13.8093 c 0.082106,0 0.4857016,0.396631 0.8970587,0.881509 1.212259,1.428975 1.882243,3.141408 2.105167,5.381023 0.06487,0.651388 0.10945,5.644284 0.110065,12.334327 8.42e-4,11.08239 0.0038,11.247117 0.223614,11.754923 0.383408,0.885661 1.198722,1.374979 2.305285,1.383076 l 0.407637,0.0029 v 0.668429 0.668916 l -0.842675,-9.41e-4 c -0.659756,-9.3e-4 -0.960838,-0.06378 -1.386482,-0.289457 -0.676256,-0.35855 -1.271811,-1.043441 -1.598343,-1.837452 l -0.25015,-0.608137 -0.0026,-10.761522 c -0.0013,-5.918865 -0.04082,-10.829709 -0.08788,-10.913305 -0.129301,-0.229757 -0.7007879,-0.187316 -0.8187491,0.06081 -0.061287,0.128441 -0.08571,4.542167 -0.062643,11.134169 l 0.037842,10.921575 0.2701691,0.6587 c 0.1484196,0.362535 0.3949325,0.843189 0.548151,1.067834 0.153235,0.224645 0.278857,0.444103 0.278857,0.487944 0,0.105005 -2.1169535,0.104062 -2.2108796,-9.41e-4 -0.039904,-0.04458 -0.072652,-7.486482 -0.072652,-16.537552 0,-13.869633 0.023395,-16.456796 0.1492194,-16.456796 z m 24.1953047,0.790537 c 0.04749,0 0.340178,0.341106 0.650395,0.757943 1.217259,1.635652 3.254143,3.371064 5.289672,4.507278 1.116641,0.623299 3.213718,1.483778 3.616513,1.483778 0.515428,0 0.569904,0.09964 0.569904,1.03913 0,0.490497 -0.03649,0.916869 -0.08136,0.947672 -0.143671,0.09865 -1.03663,-0.299014 -1.640108,-0.7307 -0.617073,-0.44141 -0.952705,-0.480986 -1.146771,-0.134756 -0.09605,0.171353 -0.04059,0.297566 0.303221,0.691294 0.482595,0.552655 1.471762,1.178794 2.088641,1.322265 l 0.42199,0.09827 v 4.372035 4.372036 l -0.295391,0.672808 c -0.360391,0.820587 -0.732812,1.233337 -1.506118,1.670101 l -0.59079,0.333728 -0.02871,3.37377 c -0.0159,1.855518 -0.07152,3.37377 -0.123551,3.37377 -0.05198,0 -0.173288,-0.134593 -0.269731,-0.299188 -0.09644,-0.164596 -0.469328,-0.522302 -0.828321,-0.794915 L 38.209056,41.160428 V 38.140819 35.12121 l 1.159819,-0.05741 c 1.138327,-0.05662 1.165283,-0.06503 1.46783,-0.443673 l 0.308449,-0.385763 V 30.52736 26.820836 H 40.87325 c -0.388273,0 -0.632328,-0.328949 -0.98015,-1.32032 -0.222806,-0.63502 -0.358034,-0.868861 -0.502909,-0.868861 -0.127171,0 -0.22273,0.120189 -0.266675,0.334701 -0.167429,0.817861 -0.364365,1.309637 -0.66431,1.659886 -0.177523,0.207294 -0.355374,0.476392 -0.395026,0.598375 -0.0413,0.127003 -0.153588,0.204432 -0.26276,0.180972 -0.173356,-0.03726 -0.193064,-0.272098 -0.218825,-2.592961 -0.02474,-2.225284 -0.05167,-2.571341 -0.210994,-2.703881 -0.246412,-0.204989 -0.321826,-0.193263 -0.576,0.09097 -0.18339,0.205049 -0.217519,0.405558 -0.217519,1.277022 v 1.033292 h -0.91185 c -1.106884,0 -1.041581,0.14594 -1.044106,-2.357503 l -0.0018,-1.810209 -0.614717,-0.804158 c -0.593518,-0.776223 -1.233557,-2.052893 -1.233776,-2.461125 -1.1e-4,-0.256342 -0.244021,-0.481445 -0.402855,-0.371674 -0.06801,0.047 -0.159018,0.249542 -0.20229,0.449511 -0.143705,0.664398 -0.673293,1.702704 -1.206374,2.365287 l -0.526405,0.654322 -0.05438,2.137613 -0.05438,2.137126 -0.951434,0.03551 -0.951873,0.03503 v -0.985617 c 0,-1.170419 -0.105628,-1.456049 -0.539883,-1.456049 -0.409615,0 -0.443861,0.139695 -0.447229,1.838912 -0.0042,2.019262 -0.104954,3.511444 -0.237101,3.511444 -0.197778,0 -0.973171,-1.017543 -1.065413,-1.398155 -0.04862,-0.20064 -0.1432,-0.600889 -0.210128,-0.889295 -0.176849,-0.761878 -0.477797,-0.668182 -0.811349,0.252486 -0.337198,0.930722 -0.567623,1.305725 -0.801786,1.305725 -0.43636,0 -0.454182,0.155046 -0.454182,3.955118 v 3.663228 l 0.261455,0.274377 c 0.329302,0.345942 0.88204,0.491083 1.886343,0.494754 l 0.7883,0.0029 v 3.08577 3.086258 l -0.353253,0.161513 c -0.194511,0.0891 -0.611887,0.433308 -0.927508,0.76524 l -0.573828,0.604213 0.0096,-3.304202 c 0.0055,-1.817101 -0.02357,-3.364848 -0.06482,-3.439445 -0.04123,-0.0746 -0.330235,-0.261709 -0.642119,-0.415944 -0.693817,-0.343125 -1.346375,-1.140327 -1.613572,-1.971235 -0.201179,-0.625337 -0.249468,-2.379065 -0.200556,-7.266618 l 0.01697,-1.702696 0.635594,-0.208702 c 0.856397,-0.281396 2.24569,-1.38695 2.24569,-1.786857 0,-0.582275 -0.284,-0.572169 -1.260758,0.04378 -0.50269,0.317014 -1.075011,0.606205 -1.272056,0.642646 l -0.35848,0.06616 0.03219,-0.941347 0.03176,-0.940861 1.25074,-0.406701 c 2.042087,-0.663807 3.821186,-1.637577 5.403231,-2.957339 0.866592,-0.722923 2.417134,-2.411076 2.918259,-3.177716 0.153016,-0.23408 0.316648,-0.425674 0.364129,-0.425674 z m -18.554552,3.323662 c 0.07377,0.02955 0.124872,0.358326 0.165324,0.990482 0.106848,1.669922 -0.402636,3.710866 -1.228566,4.921763 -0.161813,0.237231 -0.337526,0.431025 -0.390226,0.431025 -0.05273,0 -0.09571,-0.728773 -0.09571,-1.619993 0,-1.573927 0.0079,-1.62883 0.273637,-1.907992 0.40405,-0.424445 0.789983,-1.221788 0.974064,-2.012081 0.131229,-0.563396 0.227714,-0.832733 0.301478,-0.803186 z m 37.270506,0.07151 c 0.0854,-0.03553 0.214438,0.222537 0.216652,0.473349 0.0026,0.349298 0.701832,1.933689 1.018868,2.308855 0.281138,0.33233 0.287999,0.37928 0.287999,1.91529 0,0.886199 -0.04419,1.574263 -0.10093,1.574263 -0.203713,0 -0.778643,-0.930945 -1.088043,-1.762046 -0.426721,-1.146212 -0.59612,-2.305786 -0.503776,-3.445283 0.04096,-0.50546 0.10189,-0.969126 0.135733,-1.030374 0.0099,-0.01794 0.0213,-0.02898 0.0335,-0.03405 z m -18.631987,1.244913 0.399807,0.585727 c 0.219809,0.321929 0.399799,0.632084 0.399799,0.68935 0,0.05726 -0.391624,0.104107 -0.870086,0.104107 -0.47847,0 -0.868747,-0.0413 -0.867905,-0.09146 0.0013,-0.05016 0.212855,-0.360318 0.470279,-0.689348 z m -1.261187,2.473288 h 1.247701 1.247701 v 1.809236 c 0,1.34374 0.03681,1.843297 0.142695,1.941559 0.07889,0.07321 0.698069,0.147715 1.386481,0.166864 l 1.243778,0.03454 0.05438,1.337346 0.05438,1.337832 0.788291,0.03551 0.788299,0.036 v 0.359512 0.359511 h -1.522214 -1.522644 v -0.953995 c 0,-0.769743 -0.03836,-0.993017 -0.198813,-1.155401 -0.495593,-0.50154 -0.771908,-0.08619 -0.776117,1.167076 l -0.0035,0.94232 h -1.69104 -1.691445 l 0.02175,-0.913103 c 0.01733,-0.732084 -0.01743,-0.961373 -0.17445,-1.155401 -0.243204,-0.300503 -0.402997,-0.305274 -0.634298,-0.01946 -0.134512,0.166242 -0.180107,0.457556 -0.180107,1.154913 l -4.29e-4,0.933077 h -1.522215 -1.522214 v -0.364864 -0.364863 h 0.815272 0.815702 v -1.39475 -1.394752 l 1.386481,-0.03405 1.386482,-0.03405 0.03001,-1.915289 z m 1.219423,0.972969 c -0.05332,-0.0026 -0.112422,0.0097 -0.17706,0.03746 -0.138746,0.05954 -0.177935,0.245876 -0.177935,0.846482 0,0.436674 0.05651,0.832806 0.130513,0.915564 0.370418,0.414219 0.651321,0.0012 0.609059,-0.895131 -0.02812,-0.59576 -0.153504,-0.893091 -0.384577,-0.904373 z m 0.0096,3.6462 c -0.198064,0.0021 -0.315916,0.353275 -0.342813,1.036212 -0.01793,0.454541 -0.0071,0.900249 0.02392,0.990482 0.03096,0.09024 0.20458,0.163946 0.385883,0.163946 h 0.329764 v -0.957888 c 0,-0.72566 -0.04181,-0.996855 -0.172278,-1.117941 -0.08349,-0.07749 -0.158463,-0.115494 -0.224481,-0.114811 z m 6.708784,1.460913 h 0.486813 0.486813 v 3.040041 3.040041 h -1.036269 -1.035839 l 0.03002,-1.722641 c 0.02181,-1.245413 0.06792,-1.737214 0.166183,-1.773722 0.09813,-0.03646 0.136692,0.147126 0.139218,0.659187 0.0038,0.775514 0.188163,1.181644 0.505081,1.113562 0.1819,-0.03909 0.200766,-0.222711 0.227958,-2.199396 z m -14.413386,0.06081 h 0.489423 0.489423 v 2.006748 c 0,1.103517 0.03947,2.074439 0.08788,2.158045 0.114274,0.197419 0.451581,0.195397 0.599487,-0.0039 0.06376,-0.08591 0.130951,-0.469793 0.14922,-0.852807 0.01833,-0.383015 0.08205,-0.709401 0.141819,-0.725348 0.06753,-0.01802 0.120007,0.626968 0.138781,1.703669 l 0.03046,1.732857 h -1.0254 -1.025392 l -0.06308,-0.699078 c -0.03452,-0.384559 -0.05183,-1.739163 -0.03785,-3.009879 z m 7.547982,2.385719 c 0.874624,-0.0014 1.742461,0.01725 2.15738,0.05011 l 1.005818,0.07978 v 4.67317 4.673656 L 35.181596,39.538025 C 34.697856,39.258297 33.69298,37.967754 33.354856,37.192197 33.058817,36.513154 33.045549,36.403908 32.991165,34.165291 32.93434,31.825647 32.865257,31.441464 32.5,31.441464 c -0.365686,0 -0.434618,0.38338 -0.489423,2.723827 -0.05412,2.312136 -0.05608,2.326056 -0.402854,3.118365 -0.191582,0.437748 -0.582768,1.068206 -0.869648,1.401075 -0.28688,0.332869 -0.680937,0.730894 -0.875305,0.884429 l -0.353252,0.279241 -0.01827,-4.568088 c -0.0099,-2.512547 -0.02192,-4.664129 -0.02697,-4.781169 -0.0083,-0.194072 0.167858,-0.216458 2.002494,-0.251026 0.276617,-0.0052 0.568978,-0.0078 0.860513,-0.0083 z m -4.217734,0.04962 c 0.05019,0.0043 0.107497,0.01895 0.173583,0.03308 l 0.250149,0.05351 -0.02828,4.992304 -0.02871,4.992789 -0.35326,0.161513 -0.353252,0.161027 V 35.52547 c 0,-4.785183 -0.01153,-5.266208 0.339765,-5.236032 z m 8.35934,0.05741 h 0.380663 0.380663 v 5.167924 c 0,2.842392 -0.01243,5.162022 -0.02741,5.154303 -0.01495,-0.0077 -0.124882,-0.04107 -0.244493,-0.07395 -0.497757,-0.136796 -0.489422,-0.04697 -0.489422,-5.277384 z m -5.770399,1.099455 c -0.112573,-0.006 -0.216442,0.02976 -0.261027,0.110431 -0.03505,0.06345 -0.08237,1.226456 -0.104845,2.584206 -0.03508,2.116732 -0.01655,2.498878 0.130076,2.682962 0.16274,0.204301 0.183382,0.201837 0.4246,-0.05157 0.248423,-0.261343 0.253197,-0.310598 0.253197,-2.6528 0,-1.694015 -0.03788,-2.428572 -0.130513,-2.532151 -0.07799,-0.08721 -0.198915,-0.135076 -0.311488,-0.141081 z m 3.462933,0.0097 c -0.269058,0.03803 -0.302354,0.569389 -0.302354,2.561827 0,1.355319 0.04642,2.400087 0.112675,2.538476 0.140321,0.29319 0.502168,0.306673 0.622545,0.02287 0.04992,-0.11704 0.07144,-1.291679 0.04829,-2.609988 -0.03944,-2.250507 -0.05517,-2.401417 -0.254931,-2.472315 -0.08973,-0.03185 -0.164129,-0.04964 -0.226224,-0.04087 z m -1.69014,6.41527 0.38893,0.646052 c 0.820618,1.362757 1.89115,2.253358 3.540376,2.94615 1.569922,0.659478 2.701337,1.70172 3.24628,2.989933 0.327231,0.773576 0.585311,2.163203 0.433305,2.333179 -0.05553,0.06209 -0.333107,0.09569 -0.616459,0.07492 -0.488909,-0.03583 -0.522146,-0.06137 -0.656473,-0.500106 -0.325782,-1.064023 -1.224861,-2.067048 -2.210021,-2.46599 -1.027849,-0.41623 -1.669286,-0.781494 -2.154323,-1.22594 -0.516227,-0.473027 -1.200616,-1.514096 -1.447819,-2.202315 -0.07864,-0.218945 -0.219371,-0.445801 -0.312363,-0.503998 -0.259368,-0.162315 -0.65276,0.101002 -0.728696,0.487457 -0.112607,0.573335 -0.873806,1.765178 -1.456953,2.280639 -0.303288,0.268087 -0.955467,0.659985 -1.449132,0.871294 -1.587913,0.679692 -2.380657,1.447187 -2.825158,2.735015 -0.16109,0.466737 -0.189073,0.48758 -0.700856,0.521998 -0.293337,0.01972 -0.568919,-0.0038 -0.612106,-0.05205 -0.104416,-0.116765 0.01702,-1.188661 0.20969,-1.850586 0.297058,-1.0206 1.161452,-2.132927 2.160856,-2.780746 0.299036,-0.19384 1.00842,-0.55788 1.57659,-0.809023 0.568178,-0.251144 1.282528,-0.639633 1.587037,-0.863024 0.572211,-0.419779 1.343791,-1.360825 1.77845,-2.169234 z m -13.449761,1.485238 c -0.383651,0.009 -0.736937,0.556472 -0.797871,1.377723 -0.05651,0.762116 0.152267,1.260606 0.695198,1.660859 0.200262,0.14763 0.50674,0.232056 0.842246,0.232539 0.457331,6.94e-4 0.577295,-0.05498 0.90445,-0.420809 0.465733,-0.520923 0.467122,-0.993291 0.0035,-1.277021 -0.295871,-0.181063 -0.312523,-0.1745 -0.606012,0.224269 -0.236537,0.321361 -0.353126,0.391767 -0.538579,0.325944 -0.481492,-0.17089 -0.527634,-0.862181 -0.08483,-1.27313 0.230316,-0.213765 0.220348,-0.41255 -0.03393,-0.669889 -0.125008,-0.126505 -0.256262,-0.183487 -0.38414,-0.180485 z m 26.996546,0.0034 c -0.165863,-0.02269 -0.326607,0.05234 -0.468107,0.227188 -0.18935,0.233972 -0.185958,0.25673 0.09571,0.71124 0.239661,0.386742 0.27219,0.525005 0.184889,0.781781 -0.158513,0.466224 -0.542358,0.553802 -0.823531,0.18827 -0.338452,-0.440005 -0.569517,-0.497634 -0.829196,-0.207243 -0.290492,0.324837 -0.203705,0.78012 0.234929,1.232752 0.401036,0.413828 1.16583,0.461909 1.688397,0.105567 0.717818,-0.489481 0.948605,-1.97325 0.41677,-2.680043 -0.162891,-0.216441 -0.333999,-0.336791 -0.499862,-0.359476 z m -13.560271,2.539449 c 0.03672,-1.21e-4 0.208048,0.228028 0.380663,0.507403 0.53969,0.873534 1.594007,1.742744 2.693348,2.220801 0.545406,0.237173 1.151704,0.541194 1.347326,0.675241 0.424659,0.291009 1.051195,1.333791 0.901841,1.500804 -0.05818,0.06504 -0.701386,0.08968 -1.500461,0.05741 -1.288918,-0.05205 -1.445243,-0.08436 -1.987711,-0.411565 -0.68821,-0.415112 -1.267341,-1.201886 -1.3595,-1.847668 -0.08131,-0.569793 -0.193896,-0.808304 -0.404597,-0.854753 -0.260908,-0.05752 -0.51813,0.320557 -0.51813,0.761348 0,0.495824 -0.561536,1.470707 -1.064117,1.847181 -0.196557,0.147241 -0.602905,0.326536 -0.902707,0.398431 -0.704383,0.168903 -2.926535,0.173635 -2.926535,0.0063 0,-0.28663 0.570359,-1.100443 1.002342,-1.430264 0.256068,-0.195504 0.73474,-0.453309 1.063679,-0.572593 1.26389,-0.458317 2.336367,-1.315573 2.90521,-2.322476 0.166427,-0.294576 0.332644,-0.535501 0.369349,-0.535619 z m 18.256114,0.598375 1.006256,0.03503 1.005818,0.03503 -0.03524,0.364863 c -0.06103,0.630794 -0.358766,1.173687 -0.741315,1.352427 -0.197096,0.09209 -0.555845,0.167351 -0.796995,0.167351 H 50.71394 v -0.977348 z m -38.385514,0.0092 h 0.978845 0.978408 v 0.972969 0.972483 l -0.516396,-0.0049 c -0.908298,-0.0085 -1.440857,-0.56622 -1.440857,-1.508991 z m 35.115737,1.823831 c 0.07525,0 0.116589,0.451334 0.116589,1.277021 v 1.276536 h -1.081081 c -0.597264,0 -1.110848,-0.05403 -1.147638,-0.120649 -0.07389,-0.133689 0.518299,-1.155763 0.865296,-1.493507 0.404344,-0.393566 1.128763,-0.939401 1.246834,-0.939401 z m -29.811273,0.03941 c 0.491897,0.0249 2.089946,1.858451 2.089946,2.461611 0,0.08693 -2.132258,0.05972 -2.210888,-0.02821 -0.118062,-0.132005 -0.08362,-2.329504 0.03785,-2.413449 0.02216,-0.01532 0.0503,-0.02161 0.08309,-0.01995 z m 5.420194,4.771439 c -1.223464,-3.47e-4 -2.632255,9.41e-4 -4.257319,9.41e-4 -10.9405439,0 -11.4434531,0.0096 -11.6156299,0.222324 C 7.0141853,49.569948 7,51.14484 7,69.550138 7,89.351174 7.0017174,89.515534 7.2175193,89.75676 7.4337421,89.99855 7.5800992,90 32.5,90 57.419909,90 57.566258,89.998117 57.782481,89.75676 57.998198,89.515618 58,89.351475 58,69.529304 58,50.227687 57.992928,49.538127 57.798139,49.341173 57.611786,49.15258 56.723137,49.139826 45.972819,49.170416 l -11.624326,0.03308 -0.510301,0.291405 c -0.280599,0.160388 -0.693118,0.50099 -0.91664,0.75697 l -0.406323,0.465565 -0.562513,-0.59497 c -0.861717,-0.911342 -0.335387,-0.97832 -8.89966,-0.980753 z m 20.158115,0.96032 0.502042,0.03697 c 0.50131,0.03701 0.502244,0.03808 0.721734,0.705889 0.173582,0.528151 0.390639,0.847587 1.032791,1.519778 0.447237,0.468158 1.101369,1.157362 1.453477,1.531453 l 0.639947,0.680106 -0.02741,17.134468 -0.0274,17.133978 H 46.853782 46.201216 L 46.14423,74.739066 C 46.10096,64.020575 46.05541,60.531666 45.953684,60.208262 45.573038,58.998053 44.604792,57.896666 43.697117,57.641084 l -0.485946,-0.137189 v -3.701174 z m -28.92552,0.01313 v 0.668916 0.668916 l -0.407637,0.0029 c -1.106563,0.0081 -1.921877,0.496928 -2.305285,1.382588 -0.219826,0.507807 -0.22273,0.672534 -0.223614,11.754924 -6.15e-4,6.690043 -0.04519,11.683427 -0.110065,12.334812 -0.222924,2.239621 -0.892908,3.951566 -2.105167,5.380515 -0.4113571,0.48488 -0.8149523,0.881512 -0.8970587,0.881512 -0.1258242,0 -0.1492194,-2.586679 -0.1492194,-16.456307 0,-9.051071 0.032748,-16.492967 0.072652,-16.537553 0.093926,-0.105035 2.2108801,-0.106464 2.2108801,-0.0015 0,0.04384 -0.125622,0.263786 -0.278857,0.48843 -0.153219,0.224645 -0.3997319,0.704814 -0.5481515,1.067347 L 9.2739598,52.409815 9.2361183,63.33139 c -0.023067,6.592002 0.00136,11.005728 0.062643,11.13417 0.1179612,0.248126 0.6894481,0.290566 0.8187487,0.06081 0.04706,-0.0836 0.08654,-4.994927 0.08788,-10.913792 l 0.0026,-10.761424 0.25015,-0.608106 c 0.326532,-0.79401 0.922087,-1.478416 1.598343,-1.836965 0.425644,-0.22568 0.726726,-0.288528 1.386482,-0.289458 z m 1.637498,0 h 0.537274 V 69.51023 88.905392 h -0.706505 -0.706941 v -6.026083 c 0,-3.816493 -0.04439,-6.34696 -0.120942,-6.900783 -0.238338,-1.723769 -0.801331,-2.935685 -1.928545,-4.151604 l -0.670835,-0.723401 0.02828,-7.727805 0.02784,-7.727806 h 0.924032 0.924462 l 0.01697,7.208726 c 0.0128,5.461057 0.04897,7.252171 0.14922,7.387266 0.162024,0.218306 0.476466,0.231562 0.62167,0.02627 0.0676,-0.09554 0.132256,-3.824549 0.174458,-10.040066 0.03696,-5.438612 0.09523,-9.93938 0.129638,-10.001634 0.03443,-0.06226 0.304416,-0.113351 0.599925,-0.113351 z m 30.556494,0 h 1.081081 v 1.277021 c 0,0.825688 -0.04134,1.276536 -0.116589,1.276536 -0.118071,0 -0.84249,-0.545836 -1.246834,-0.939402 -0.346997,-0.337744 -0.939185,-1.359818 -0.865296,-1.493507 0.03679,-0.06662 0.550374,-0.120648 1.147638,-0.120648 z m 2.059497,0 h 0.598182 0.598182 l 0.02306,5.320193 c 0.0128,2.925992 0.02521,7.404678 0.0274,9.952499 0.0034,3.742593 0.0326,4.670681 0.153134,4.833223 0.180343,0.243108 0.486619,0.260953 0.652129,0.03795 0.08538,-0.115035 0.129452,-2.29804 0.149219,-7.387266 l 0.02785,-7.223808 h 0.924461 0.924461 l 0.02785,7.692779 0.02784,7.692291 -0.749144,0.790051 c -0.497799,0.525126 -0.879851,1.068696 -1.139371,1.620966 -0.763102,1.623893 -0.755955,1.54692 -0.824406,8.834553 l -0.06135,6.566082 -0.679968,0.03653 -0.679531,0.03596 V 69.516169 Z m 2.175209,0 h 0.713029 c 0.391994,0 0.9316,0.06185 1.199412,0.137188 h 4.38e-4 c 0.62247,0.175529 1.479784,1.026041 1.871551,1.856425 l 0.29322,0.620754 0.02523,10.822333 0.02567,10.822332 0.229272,0.211135 c 0.173389,0.159527 0.28001,0.180903 0.436781,0.08708 0.184392,-0.110355 0.20916,-0.281883 0.223177,-1.54848 0.04849,-4.382768 -0.05356,-20.66494 -0.131389,-20.968453 -0.122516,-0.477699 -0.567934,-1.316175 -0.851809,-1.603452 -0.125807,-0.127325 -0.228834,-0.279403 -0.228834,-0.338107 0,-0.05871 0.5505,-0.09139 1.223338,-0.07249 l 1.223338,0.03454 0.02785,16.470417 c 0.01658,9.892231 -0.01271,16.51472 -0.07265,16.581823 -0.0607,0.06788 -0.436537,-0.263311 -0.958396,-0.844534 -1.323435,-1.473995 -1.955527,-3.040982 -2.200449,-5.455441 -0.06735,-0.664164 -0.11243,-5.492536 -0.114417,-12.281785 -0.0034,-10.618415 -0.0136,-11.212602 -0.204471,-11.682437 -0.371394,-0.914401 -1.296773,-1.51102 -2.343135,-1.51102 h -0.38675 v -0.668859 z m -31.670205,4.87e-4 c 0.378988,0.0033 0.678664,0.01994 0.678664,0.05254 0,0.643371 -1.818498,2.686208 -2.173038,2.441178 -0.121472,-0.08394 -0.155912,-2.280958 -0.03785,-2.412963 0.04915,-0.05496 0.90057,-0.08629 1.532224,-0.08075 z m 9.272486,9.41e-4 c 0.643626,0.0015 1.374931,0.04495 1.727123,0.129405 0.299802,0.0719 0.70615,0.251189 0.902707,0.398431 0.502581,0.376473 1.064117,1.351356 1.064117,1.847181 0,0.44079 0.257222,0.818382 0.51813,0.760862 0.210701,-0.04645 0.323291,-0.284475 0.404597,-0.854266 0.09216,-0.645783 0.67129,-1.432558 1.3595,-1.847668 0.542468,-0.327204 0.698793,-0.359521 1.987711,-0.411567 0.799075,-0.03227 1.44228,-0.0076 1.500461,0.05741 0.149354,0.167013 -0.477182,1.209797 -0.901841,1.500805 -0.195622,0.134046 -0.80192,0.437582 -1.347326,0.674754 -1.099341,0.478058 -2.153658,1.347267 -2.693348,2.220802 -0.172615,0.279374 -0.343941,0.50801 -0.380663,0.50789 -0.0367,-1.19e-4 -0.202922,-0.241043 -0.369349,-0.53562 -0.568843,-1.006903 -1.64132,-1.864645 -2.90521,-2.322964 -0.328939,-0.119283 -0.807611,-0.376602 -1.063679,-0.572105 -0.431983,-0.329821 -1.002342,-1.144121 -1.002342,-1.43075 0,-0.08365 0.555795,-0.124067 1.199412,-0.122595 z m -7.167756,0.01265 c 0.04256,0.0022 0.09082,0.0062 0.145742,0.0107 l 0.439829,0.036 0.02871,3.678309 c 0.02694,3.445586 0.01664,3.678656 -0.163135,3.679768 -0.373053,0.0024 -1.285155,0.584915 -1.736257,1.109184 -0.25132,0.292084 -0.569079,0.804948 -0.706504,1.139347 l -0.25015,0.607619 -0.02915,14.263724 -0.02958,14.263236 -0.677359,-0.03596 -0.677359,-0.03653 V 71.584214 54.32326 l 1.087167,-0.940374 c 1.216392,-1.052224 1.659976,-1.623541 2.024694,-2.607557 0.217528,-0.586891 0.245419,-0.660925 0.543361,-0.646051 z m 20.279065,0.0029 c 0.06721,-0.0018 0.144555,5.2e-4 0.232311,0.0068 l 0.5177,0.03697 0.05438,4.668305 c 0.04975,4.27475 0.0702,4.679724 0.244492,4.802574 0.263249,0.185593 0.542932,-0.03053 0.667358,-0.515673 0.07131,-0.278115 0.163001,-0.382377 0.334984,-0.382377 0.371184,0 1.087529,0.773465 1.374729,1.484264 l 0.260159,0.643619 v 13.984114 13.983992 h -0.761326 -0.761326 l -0.05438,-12.767781 -0.05438,-12.768271 -0.312793,-0.757943 c -0.31706,-0.767625 -0.966638,-1.541577 -1.71276,-2.041288 l -0.366739,-0.245675 -0.02828,-4.921762 c -0.01566,-2.707181 -0.0042,-4.993952 0.0261,-5.081331 0.02772,-0.0808 0.138149,-0.122976 0.339774,-0.128432 z m -18.209568,4.87e-4 c 0.06291,-9.7e-5 0.129672,0.0024 0.197509,0.0073 l 0.493337,0.036 v 5.041439 5.041924 l -0.380663,0.269513 c -1.05995,0.751434 -1.650084,1.54758 -1.921146,2.590043 -0.156653,0.602478 -0.177219,2.047824 -0.187498,13.201242 l -0.01174,12.524575 H 20.647269 19.885952 V 74.739066 60.633449 l 0.313659,-0.632916 c 0.507304,-1.023693 1.589209,-1.674888 1.589209,-0.956428 0,0.298842 0.251396,0.677673 0.449839,0.677673 0.05944,0 0.202761,-0.05677 0.31845,-0.126 0.202256,-0.121044 0.210557,-0.302585 0.210557,-4.722304 0,-2.527935 0.03476,-4.63523 0.07744,-4.6829 0.03195,-0.03575 0.184527,-0.05759 0.373263,-0.05789 z m 16.4533,0 c 0.200127,0.0037 0.366857,0.03418 0.408504,0.08075 0.152006,0.169977 -0.106074,1.559604 -0.433305,2.33318 -0.544943,1.288213 -1.676358,2.329968 -3.24628,2.989447 -1.649226,0.692791 -2.719758,1.583879 -3.540376,2.946636 l -0.38893,0.645565 -0.248845,-0.463133 C 31.78778,57.856725 31.0162,56.915191 30.443989,56.495413 30.13948,56.272022 29.42513,55.884019 28.856952,55.632876 c -0.56817,-0.251144 -1.277554,-0.615184 -1.57659,-0.809023 -0.999404,-0.64782 -1.863798,-1.760146 -2.160856,-2.780745 -0.192668,-0.661927 -0.314106,-1.734309 -0.20969,-1.851074 0.04319,-0.04832 0.318769,-0.07177 0.612106,-0.05205 0.511783,0.03442 0.539766,0.05575 0.700856,0.522485 0.444501,1.287827 1.237245,2.054836 2.825158,2.734528 0.493665,0.211309 1.145844,0.603694 1.449132,0.871781 0.583147,0.51546 1.344346,1.706818 1.456953,2.280152 0.07594,0.386455 0.469328,0.649773 0.728696,0.487458 0.09299,-0.0582 0.233725,-0.285054 0.312363,-0.503999 0.247203,-0.688219 0.931592,-1.729289 1.447819,-2.202314 0.485037,-0.444448 1.126474,-0.809225 2.154323,-1.225454 0.98516,-0.398943 1.884239,-1.401968 2.210021,-2.465991 0.134327,-0.438737 0.167564,-0.464277 0.656473,-0.500106 0.07084,-0.0052 0.141247,-0.0071 0.207955,-0.0058 z m -25.38602,2.414505 v 0.972968 0.972969 h -0.978408 -0.978845 v -0.431998 c 0,-0.942772 0.532559,-1.500515 1.440857,-1.509075 z m 36.428261,0 h 0.438524 c 0.24115,0 0.599899,0.07527 0.796995,0.16735 0.382549,0.178739 0.68028,0.72212 0.741315,1.352913 l 0.03524,0.364863 -1.005818,0.03503 -1.006256,0.03454 v -0.977348 z m -25.777561,1.66037 0.573827,0.603728 c 0.315621,0.331932 0.732998,0.676621 0.927509,0.765726 h 4.3e-4 l 0.352822,0.161513 v 3.085771 3.086258 l -0.788299,0.0029 c -1.004303,0.0037 -1.557042,0.148327 -1.886343,0.494268 l -0.261456,0.274863 v 3.663229 c 0,3.800072 0.01782,3.955118 0.454183,3.955118 0.234163,0 0.464587,0.375002 0.801785,1.305724 0.333553,0.920669 0.6345,1.013877 0.81135,0.251999 0.06693,-0.288406 0.16151,-0.688167 0.210127,-0.888807 0.09224,-0.380612 0.867636,-1.398643 1.065414,-1.398643 0.132146,0 0.2329,1.492669 0.237101,3.511932 0.0034,1.699217 0.03761,1.838424 0.447228,1.838424 0.434256,0 0.539884,-0.28563 0.539884,-1.456047 v -0.985132 l 0.951872,0.03503 0.951435,0.03503 0.05438,2.137612 0.05438,2.137613 0.526406,0.65432 c 0.533081,0.662589 1.062669,1.700892 1.206374,2.365289 0.04327,0.199973 0.134276,0.402017 0.20229,0.449022 0.158833,0.109777 0.402745,-0.115332 0.402854,-0.371667 2.19e-4,-0.40824 0.640259,-1.684907 1.233777,-2.461133 l 0.614716,-0.804155 0.0018,-1.810209 c 0.0025,-2.503442 -0.06278,-2.357503 1.044106,-2.357503 h 0.911851 v 1.03378 c 0,0.871464 0.03413,1.071485 0.217519,1.276535 0.254174,0.284236 0.329587,0.296448 0.575999,0.09146 0.159322,-0.13254 0.186253,-0.479083 0.210995,-2.704367 0.02576,-2.320863 0.04547,-2.5557 0.218824,-2.592962 0.109173,-0.02346 0.22146,0.05397 0.262761,0.180973 0.03965,0.121982 0.217503,0.391568 0.395025,0.598861 0.299946,0.350249 0.496882,0.842025 0.66431,1.659885 0.04395,0.214512 0.139505,0.334215 0.266676,0.334215 0.144875,0 0.280103,-0.23384 0.502909,-0.868861 0.347822,-0.991371 0.591877,-1.319832 0.98015,-1.319832 h 0.27187 V 66.47224 62.765228 l -0.30851,-0.385296 c -0.302547,-0.378644 -0.329503,-0.387061 -1.46783,-0.443674 l -1.159819,-0.0579 V 58.85924 55.839631 l 0.652558,-0.495727 c 0.358993,-0.272614 0.731877,-0.63032 0.828321,-0.794916 0.09644,-0.164596 0.217755,-0.299188 0.269731,-0.299188 0.05203,0 0.107648,1.517765 0.123551,3.373283 l 0.02871,3.373769 0.59079,0.333728 c 0.773306,0.436765 1.145727,0.850001 1.506118,1.670588 l 0.295391,0.672321 v 4.372036 4.372036 l -0.42199,0.09827 c -0.616879,0.143471 -1.606046,0.769611 -2.088641,1.322264 -0.343806,0.39373 -0.399268,0.519941 -0.303221,0.691295 0.194066,0.34623 0.529698,0.307141 1.146771,-0.13427 0.603478,-0.431685 1.496437,-0.829833 1.640108,-0.731185 0.04487,0.0308 0.08136,0.457174 0.08136,0.94767 0,0.939494 -0.05448,1.039618 -0.569904,1.039618 -0.402795,0 -2.499872,0.859992 -3.616513,1.483292 -2.035529,1.13621 -4.072413,2.872113 -5.289672,4.507766 -0.310217,0.416835 -0.602905,0.757944 -0.650395,0.757944 -0.04748,0 -0.211112,-0.191595 -0.364128,-0.425675 -0.501125,-0.766642 -2.051668,-2.455287 -2.91826,-3.178201 -1.582045,-1.319765 -3.361143,-2.293537 -5.40323,-2.957343 l -1.25074,-0.406214 -0.03176,-0.941348 -0.03219,-0.940861 0.35848,0.06616 c 0.197045,0.03644 0.769366,0.325633 1.272056,0.642646 0.976757,0.615953 1.260758,0.625572 1.260758,0.0433 0,-0.399907 -1.389293,-1.505461 -2.24569,-1.786857 l -0.635595,-0.208702 -0.01697,-1.702209 c -0.04891,-4.887553 -6.23e-4,-6.641281 0.200555,-7.266618 0.267198,-0.830907 0.919756,-1.628596 1.613573,-1.971721 0.311883,-0.154236 0.600885,-0.341345 0.642119,-0.415944 0.04125,-0.0746 0.0703,-1.622345 0.06482,-3.439445 z m 20.275151,0.156648 c -0.306706,0.01909 -0.598225,0.134598 -0.798738,0.341513 -0.438634,0.452631 -0.525421,0.908401 -0.234929,1.233237 0.259679,0.290392 0.490744,0.232277 0.829196,-0.207728 0.281173,-0.365534 0.665018,-0.277469 0.823531,0.188756 0.0873,0.256775 0.05477,0.394552 -0.184889,0.781294 -0.281669,0.454511 -0.285061,0.477755 -0.09571,0.711726 0.283,0.349689 0.642187,0.300146 0.967969,-0.132809 0.531835,-0.706794 0.301048,-2.190077 -0.41677,-2.679557 -0.261288,-0.178172 -0.582962,-0.255521 -0.889659,-0.236432 z m -25.450406,0.0078 c -0.335506,4.83e-4 -0.641984,0.08539 -0.842246,0.233026 -0.542931,0.400251 -0.751712,0.898254 -0.695198,1.660371 0.08124,1.095002 0.68199,1.703747 1.182011,1.197724 0.254283,-0.257338 0.264251,-0.456609 0.03394,-0.670375 -0.442801,-0.410949 -0.396659,-1.10224 0.08483,-1.273129 0.185452,-0.06582 0.302041,0.0051 0.538578,0.32643 0.293489,0.398769 0.310141,0.404845 0.606012,0.223783 0.463645,-0.283732 0.462256,-0.755613 -0.0035,-1.276535 -0.327154,-0.365831 -0.447119,-0.421989 -0.90445,-0.421295 z m 8.008689,1.944478 0.353252,0.161027 0.35326,0.161026 0.02871,4.992789 0.02828,4.99279 -0.250149,0.05351 c -0.528696,0.113016 -0.513348,0.265831 -0.513348,-5.20295 z m 9.43302,0.01459 c 0.01499,-0.0077 0.02741,2.311425 0.02741,5.153817 v 5.167924 h -0.38069 -0.380663 v -4.970412 c 0,-5.230414 -0.0083,-5.140587 0.489422,-5.277383 0.119611,-0.03287 0.229541,-0.06619 0.244493,-0.07395 z m -7.693287,0.8207 0.353252,0.278755 c 0.194368,0.153535 0.588425,0.55156 0.875305,0.884429 0.28688,0.332869 0.678066,0.963327 0.869648,1.401075 0.34677,0.792309 0.348731,0.806716 0.402854,3.118852 0.05481,2.340446 0.123737,2.723826 0.489423,2.723826 0.365257,0 0.43434,-0.384183 0.491165,-2.723826 0.05438,-2.238618 0.06765,-2.348349 0.363691,-3.027393 0.338124,-0.775558 1.343,-2.065614 1.82674,-2.345341 l 0.308886,-0.17854 v 4.673169 4.673656 l -1.005818,0.0793 c -0.553219,0.04381 -1.911448,0.06268 -3.017893,0.04184 -1.834636,-0.03457 -2.010762,-0.05647 -2.002494,-0.250539 0.0051,-0.117039 0.01704,-2.268623 0.02697,-4.781169 z m 1.135894,2.878042 c -0.05562,-0.0068 -0.101343,0.04379 -0.182717,0.145945 -0.146626,0.184084 -0.165156,0.566715 -0.130076,2.683448 0.02248,1.357751 0.06979,2.520273 0.104845,2.583719 0.08918,0.161356 0.416527,0.144269 0.572515,-0.03016 0.09263,-0.10358 0.130513,-0.838622 0.130513,-2.532638 0,-2.342203 -0.0048,-2.391457 -0.253197,-2.6528 -0.120633,-0.126621 -0.186281,-0.19067 -0.241911,-0.19743 z m 3.64522,0.185837 c -0.123037,0.0044 -0.248727,0.08108 -0.318887,0.227674 -0.06625,0.138388 -0.112675,1.183644 -0.112675,2.538962 0,2.452233 0.05003,2.690795 0.528578,2.520963 0.199764,-0.0709 0.21549,-0.222293 0.254931,-2.4728 0.02315,-1.318311 0.0016,-2.492463 -0.04829,-2.609503 -0.06018,-0.141904 -0.18062,-0.209725 -0.303657,-0.205296 z m -9.43563,2.910636 h 1.025392 1.0254 l -0.03046,1.732857 c -0.01877,1.076701 -0.07126,1.722176 -0.138781,1.704156 -0.05977,-0.01595 -0.123492,-0.342334 -0.141819,-0.725349 -0.01827,-0.383014 -0.08546,-0.766894 -0.14922,-0.852807 -0.147906,-0.199289 -0.485213,-0.201798 -0.599487,-0.0044 -0.04841,0.08361 -0.08788,1.055016 -0.08788,2.158532 v 2.006262 h -0.489423 -0.489423 l -0.02523,-2.310315 c -0.01398,-1.270716 0.0034,-2.624834 0.03785,-3.009392 z m 13.239204,4.86e-4 h 1.035839 1.036269 v 3.039555 3.040041 h -0.486813 -0.486813 l -0.03002,-2.156612 c -0.02719,-1.976686 -0.04606,-2.160312 -0.227958,-2.199397 -0.316918,-0.06808 -0.501301,0.338049 -0.505081,1.113564 -0.0025,0.51206 -0.04108,0.695162 -0.139218,0.6587 -0.09826,-0.03651 -0.144371,-0.527824 -0.166183,-1.773236 z M 26.790939,67.86896 h 1.522214 1.522215 l 4.29e-4,0.93259 c 0,0.697357 0.0456,0.989159 0.180107,1.155401 0.231301,0.285814 0.391094,0.280557 0.634298,-0.01995 0.157023,-0.194028 0.191784,-0.42283 0.17445,-1.154913 l -0.02175,-0.913132 h 1.691445 1.691006 l 0.0035,0.94232 c 0.0042,1.253258 0.280524,1.668131 0.776117,1.16659 0.16045,-0.162385 0.198814,-0.385172 0.198814,-1.154914 v -0.953996 h 1.522643 1.522214 v 0.359512 0.359512 l -0.788299,0.03551 -0.78829,0.036 -0.05438,1.337346 -0.05438,1.337832 -1.243779,0.03454 c -0.688412,0.01915 -1.30759,0.09365 -1.386481,0.166864 -0.10588,0.09826 -0.142695,0.597332 -0.142695,1.941074 v 1.809236 h -1.247701 -1.247701 l -0.03002,-1.91529 -0.03001,-1.914803 -1.386481,-0.03405 -1.386482,-0.03405 v -1.39475 -1.394752 h -0.815701 -0.815272 v -0.364863 z m 5.75996,0.608105 c -0.181303,0 -0.354919,0.0737 -0.385883,0.163946 -0.03098,0.09023 -0.04186,0.535941 -0.02392,0.990482 0.03586,0.910582 0.233321,1.230864 0.567294,0.920915 0.130471,-0.121086 0.172278,-0.391795 0.172278,-1.117455 v -0.957888 z m -0.04351,3.875822 c -0.07778,0.0056 -0.164937,0.05747 -0.257542,0.161026 -0.074,0.08276 -0.130513,0.479377 -0.130513,0.91605 0,0.600606 0.03919,0.786447 0.177935,0.845997 0.344758,0.147938 0.527029,-0.133672 0.561637,-0.866916 0.0317,-0.672286 -0.11818,-1.072712 -0.351517,-1.056157 z m -20.083283,0.379944 c 0.0527,0 0.228413,0.194281 0.390226,0.431512 0.82593,1.210896 1.335414,3.25184 1.228566,4.921763 -0.0809,1.264316 -0.204344,1.313598 -0.466802,0.186812 C 13.392015,77.4826 13.006082,76.685253 12.602032,76.260789 12.3363,75.981627 12.328395,75.92721 12.328395,74.353284 c 0,-0.89122 0.04298,-1.62048 0.09571,-1.62048 z m 40.146563,0 c 0.05674,0 0.10093,0.688552 0.10093,1.57475 0,1.53601 -0.0069,1.582473 -0.287999,1.914803 -0.317036,0.375167 -1.016233,1.959557 -1.018868,2.308855 -0.0025,0.286639 -0.170821,0.582824 -0.250149,0.439298 -0.03384,-0.06129 -0.09478,-0.524918 -0.135733,-1.030377 -0.09234,-1.139497 0.07706,-2.29907 0.503776,-3.445282 0.3094,-0.831101 0.88433,-1.762047 1.088043,-1.762047 z m -20.125056,3.648147 c 0.478462,0 0.870086,0.04684 0.870086,0.104108 0,0.05727 -0.17999,0.36742 -0.399799,0.689344 L 32.516096,77.759673 32.04799,77.161298 C 31.790566,76.83227 31.57894,76.52211 31.577711,76.47195 c -8.42e-4,-0.05016 0.389435,-0.09097 0.867905,-0.09097 z m -10.004229,0.331783 0.494204,0.07541 c 0.271769,0.04166 0.871231,0.220559 1.332106,0.397459 2.649201,1.016858 5.290724,3.089784 7.035938,5.521113 1.029046,1.433609 1.091091,1.50042 1.278152,1.383074 0.09564,-0.05997 0.427024,-0.483063 0.736524,-0.940378 1.256566,-1.856667 3.160285,-3.621491 5.300996,-4.914463 1.059663,-0.640042 2.790372,-1.328539 3.504259,-1.393778 l 0.380663,-0.03454 v 0.899992 0.900002 L 41.5541,78.888316 c -3.674492,1.090778 -7.225534,4.418474 -8.670827,8.125265 L 32.530021,87.9199 31.988386,86.740668 c -1.757177,-3.827507 -4.924457,-6.766761 -8.503769,-7.89175 l -1.04323,-0.327891 v -0.904379 z m 30.354633,0.885405 c 0.03873,-7.25e-4 0.126498,0.35811 0.194899,0.797342 0.161292,1.035715 0.538823,2.187476 0.998865,3.047826 0.474151,0.886728 1.81497,2.48722 2.498012,2.982154 l 0.533359,0.386748 v 0.952052 c 0,0.601134 -0.04332,0.952542 -0.117465,0.952542 -0.246024,0 -1.386776,-0.949002 -2.264825,-1.884156 -1.688961,-1.798818 -2.486453,-3.590499 -2.373156,-5.331872 0.05177,-0.79544 0.359482,-1.899642 0.530311,-1.902636 z m -40.612498,0.0482 c 0.09851,0.01299 0.278521,0.336684 0.422428,0.821187 0.270683,0.911337 0.220491,2.132188 -0.128771,3.120805 -0.517902,1.465936 -1.981784,3.355807 -3.4307398,4.429441 C 8.0594448,86.749046 8.0876049,86.7583 8.0876049,85.704425 v -0.917022 l 0.5163958,-0.456807 c 1.3384786,-1.183977 2.1717583,-2.259259 2.7355423,-3.529939 0.319704,-0.720561 0.771327,-2.457133 0.771327,-2.965604 0,-0.136692 0.02788,-0.194683 0.07265,-0.188761 z m 10.534988,2.144916 c 0.169205,0.0047 0.441512,0.09878 0.880086,0.248107 2.513427,0.855784 4.987353,2.941175 6.566965,5.536195 0.70573,1.159368 1.518737,2.87297 1.518737,3.200578 0,0.07164 -0.20942,0.129406 -0.468544,0.129406 h -0.468536 l -0.504652,-0.948644 c -0.864673,-1.625496 -2.74274,-3.757147 -4.28169,-4.859984 -0.727408,-0.521275 -2.110556,-1.18199 -2.894334,-1.382585 l -0.625155,-0.160057 v -0.884422 c 0,-0.647046 -0.0049,-0.886738 0.277123,-0.878594 z m 19.840103,0.115783 v 0.783239 c 0,0.430768 -0.04985,0.817714 -0.110502,0.859616 -0.06061,0.04189 -0.455327,0.183103 -0.877048,0.31378 -1.544523,0.478619 -3.057721,1.52532 -4.883349,3.377666 -0.848374,0.860802 -2.037373,2.500381 -2.370976,3.269179 -0.142249,0.327816 -0.233068,0.395023 -0.532063,0.395023 -0.497773,0 -0.47815,-0.296213 0.106588,-1.59908 0.921271,-2.052714 2.597974,-4.232123 4.130728,-5.369811 1.500991,-1.114115 3.354872,-2.011029 4.182932,-2.023775 z m -28.681466,0.870809 c 0.13426,0.01374 0.189082,1.494753 0.165316,4.4669 l -0.02872,3.599979 -1.223337,0.03455 c -0.672847,0.01892 -1.223338,-0.0047 -1.223338,-0.05206 0,-0.04754 0.372413,-0.514299 0.827454,-1.037183 0.565131,-0.64941 0.806508,-1.012048 0.761317,-1.143732 -0.03637,-0.106021 -0.06656,-0.241103 -0.06656,-0.300157 0,-0.05903 -0.09672,-0.165434 -0.215347,-0.236434 -0.187617,-0.112282 -0.332661,-1.23e-4 -1.114578,0.861564 -0.494398,0.544848 -1.148135,1.202899 -1.45261,1.462378 -0.5315742,0.453014 -0.5867327,0.471889 -1.3864727,0.471889 H 8.0871671 v -0.48649 c 0,-0.267519 0.045898,-0.485991 0.1017975,-0.485991 0.228514,0 2.1040984,-1.514381 2.8830274,-2.32783 1.312322,-1.370479 2.153776,-2.743414 2.560663,-4.177927 0.07585,-0.267519 0.16609,-0.540441 0.200547,-0.60665 0.0156,-0.02994 0.03006,-0.04425 0.04395,-0.04283 z m 37.293128,0.251995 c 0.05893,0.02193 0.220693,0.403656 0.359776,0.848432 0.139092,0.444776 0.460101,1.15452 0.713037,1.577182 0.547763,0.9153 2.30867,2.883373 3.190162,3.565439 1.381624,1.06906 1.533521,1.220297 1.533521,1.526102 0,0.287374 -0.02942,0.298962 -0.843542,0.333248 -0.782078,0.03295 -0.87757,0.0095 -1.305133,-0.321565 -0.461969,-0.357752 -1.708315,-1.674524 -2.063832,-2.180425 -0.206204,-0.293427 -0.61528,-0.354994 -0.822234,-0.123569 -0.277173,0.309958 -0.116959,0.654625 0.766545,1.648692 l 0.897059,1.009459 -1.304695,-0.03408 -1.305124,-0.03408 -0.03393,-2.310311 c -0.04142,-2.793515 0.06827,-5.56053 0.218395,-5.504573 z M 22.623666,82.74959 c 0.176226,-0.0028 0.558926,0.124021 1.22987,0.402328 0.940566,0.390137 2.150771,1.247004 2.696825,1.909451 0.55843,0.677454 0.784385,1.493238 0.784385,2.832801 0,0.968009 -0.01078,1.011671 -0.24493,1.011398 -0.186985,-2.26e-4 -0.320597,-0.163306 -0.566865,-0.690323 -0.647625,-1.385917 -1.999472,-2.679483 -3.491649,-3.341658 l -0.644291,-0.286055 0.03784,-0.85038 c 0.02096,-0.467765 0.0608,-0.891915 0.08832,-0.942318 0.01584,-0.02899 0.05176,-0.04425 0.110494,-0.04528 z m 19.643462,0.154701 c 0.283774,0.0019 0.294524,0.233619 0.268856,0.918971 l -0.03175,0.845994 -0.59122,0.232545 c -1.371639,0.53919 -2.736552,1.814662 -3.433788,3.208854 -0.324393,0.648656 -0.450293,0.800768 -0.63647,0.771077 -0.219506,-0.03502 -0.23194,-0.102228 -0.227958,-1.2527 0.0034,-1.007086 0.04478,-1.30265 0.240578,-1.71924 0.50578,-1.076308 2.369982,-2.479595 3.833157,-2.88582 0.264124,-0.07334 0.449619,-0.120425 0.5786,-0.119681 z m -19.756136,2.992858 c 0.144875,1.9e-5 0.474067,0.150521 0.880962,0.411563 h 4.38e-4 c 0.542855,0.348263 0.734546,0.720777 0.823101,1.597611 0.0982,0.97233 0.07365,0.999245 -0.915765,0.999245 -0.472063,0 -0.859301,-0.04086 -0.860513,-0.09094 -0.0088,-0.362864 -0.01525,-2.786643 -0.0078,-2.865881 0.0034,-0.03493 0.03133,-0.05159 0.07962,-0.05159 z m 19.806168,0.09534 c 0.246227,-0.0056 0.247919,0.0056 0.217519,1.423461 l -0.03045,1.428798 -0.842674,0.03549 -0.843113,0.03549 v -0.900482 c 0,-0.729542 0.04343,-0.962285 0.227529,-1.223996 0.268149,-0.381212 0.920446,-0.791213 1.271189,-0.79881 z m -13.918305,0.967623 c 0.04714,0 0.291224,0.349525 0.542501,0.776913 0.694112,1.180588 0.694542,1.168538 -0.01828,1.168538 h -0.609927 v -0.972481 c 0,-0.535038 0.03857,-0.97297 0.0857,-0.97297 z M 36.4963,87.08562 c 0.04487,-0.0019 0.08135,0.406668 0.08135,0.908268 v 0.911675 h -0.598182 c -0.328948,0 -0.597576,-0.04086 -0.597315,-0.09094 8.42e-4,-0.189683 0.989107,-1.7231 1.114148,-1.728965 z m 3.240194,0.74724 c 0.07309,-0.0047 0.103541,0.168013 0.103541,0.525408 0,0.502606 -0.02219,0.547295 -0.271904,0.547295 -0.325252,0 -0.352343,-0.235332 -0.08527,-0.740914 0.114097,-0.215996 0.196785,-0.327929 0.253635,-0.331789 z m -14.481255,0.221842 c 0.05253,0 0.157191,0.165481 0.23231,0.368269 0.150196,0.405491 0.09718,0.551154 -0.160087,0.440756 -0.177321,-0.07607 -0.242776,-0.809025 -0.07222,-0.809025 z" /></g></svg>
